<?xml version="1.0" encoding="UTF-8"?>
<svg width="683px" height="327px" viewBox="0 0 683 327" version="1.1" xmlns="http://www.w3.org/2000/svg" xmlns:xlink="http://www.w3.org/1999/xlink">
    <title>arrow-events</title>
    <g id="Webpage" stroke="none" stroke-width="1" fill="none" fill-rule="evenodd" opacity="0.319661458">
        <g id="WEBPAGE" transform="translate(119.000000, -754.000000)" fill="#E8E7E7" fill-rule="nonzero">
            <g id="Content" transform="translate(-393.000000, 2.000000)">
                <g id="1---title-page" transform="translate(274.000000, 99.000000)">
                    <g id="arrow-events" transform="translate(0.000000, 653.000000)">
                        <path d="M632,207.977885 L388.189655,323.911677 C374.592585,330.377321 359.145306,326.362808 353.689157,314.932052 L247.691848,93.0025472 C226.544349,48.7093492 163.92067,34.2853848 108.091589,60.8314501 L19.7618098,102.838497 L0,61.4599452 L88.3297788,19.4528985 C171.313634,-20.0087427 264.894857,2.4835286 296.970401,69.5832455 L393.055312,270.827403 L612.23819,166.599333 L632,207.977885 Z" id="Path"></path>
                        <path d="M632,207.977885 L388.189655,323.911677 C374.592585,330.377321 359.145306,326.362808 353.689157,314.932052 L247.691848,93.0025472 C226.544349,48.7093492 163.92067,34.2853848 108.091589,60.8314501 L19.7618098,102.838497 L0,61.4599452 L88.3297788,19.4528985 C171.313634,-20.0087427 264.894857,2.4835286 296.970401,69.5832455 L393.055312,270.827403 L612.23819,166.599333 L632,207.977885 Z" id="Path"></path>
                        <path d="M522.938387,116.206008 C519.066571,115.34034 515.109603,117.26343 513.409531,120.83704 L498.58074,154.164774 C497.807334,155.723975 497.806374,157.553197 498.578144,159.113203 C499.349914,160.673209 500.806415,161.786124 502.518284,162.123871 L616.91181,190.797025 L569.204528,297.915157 C568.434256,299.473631 568.434963,301.300517 569.206443,302.858398 C569.977922,304.416279 571.432423,305.527955 573.142072,305.866404 L608.698094,314.790953 C612.562052,315.661486 616.516428,313.752686 618.22695,310.191317 L682.432541,163.929188 C683.190453,162.380331 683.189085,160.569588 682.428834,159.021871 C681.668582,157.474153 680.234478,156.362564 678.542248,156.009338 L522.938387,116.206008 Z" id="Path"></path>
                    </g>
                </g>
            </g>
        </g>
    </g>
</svg>