<?xml version="1.0" encoding="UTF-8"?>
<svg width="433px" height="877px" viewBox="0 0 433 877" version="1.1" xmlns="http://www.w3.org/2000/svg" xmlns:xlink="http://www.w3.org/1999/xlink">
    <title>arrow-events</title>
    <g id="Webpage" stroke="none" stroke-width="1" fill="none" fill-rule="evenodd">
        <g id="WEBPAGE" transform="translate(-1147.000000, -4008.000000)" fill="#E8E7E7" fill-rule="nonzero">
            <g id="Content" transform="translate(-393.000000, 2.000000)">
                <g id="5---success-stories" transform="translate(393.000000, 3543.000000)">
                    <g id="arrow-events" transform="translate(1363.500000, 901.500000) rotate(-91.000000) translate(-1363.500000, -901.500000) translate(929.000000, 693.000000)">
                        <path d="M802.72,264.73 L493.05,412.3 C475.78,420.53 456.16,415.42 449.23,400.87 L314.6,118.38 C287.74,62 208.2,43.64 137.29,77.43 L25.1,130.9 L-2.54658516e-11,78.23 L112.19,24.76 C217.59,-25.47 336.45,3.16 377.19,88.57 L499.23,344.73 L777.62,212.06 L802.72,264.73 Z" id="Path"></path>
                        <path d="M665,148.1 C660.083463,146.997127 655.058798,149.44717 652.9,154 L634.07,196.46 C633.087907,198.446443 633.086689,200.776898 634.066703,202.764367 C635.046717,204.751836 636.896223,206.169706 639.07,206.6 L784.33,243.13 L723.75,379.6 C722.771887,381.585518 722.772786,383.912996 723.752431,385.897758 C724.732077,387.882521 726.579041,389.298812 728.75,389.73 L773.9,401.1 C778.806559,402.209072 783.827932,399.777233 786,395.24 L867.53,208.9 C868.492417,206.926734 868.490679,204.619823 867.525292,202.648009 C866.559904,200.676195 864.738839,199.260014 862.59,198.81 L665,148.1 Z" id="Path"></path>
                    </g>
                </g>
            </g>
        </g>
    </g>
</svg>