<svg width="702" height="695" viewBox="0 0 702 695" fill="none" xmlns="http://www.w3.org/2000/svg">
<g opacity="0.265579">
<path fill-rule="evenodd" clip-rule="evenodd" d="M536.534 438.324C540.264 446.343 543.04 454.565 544.802 462.816C552.522 498.485 542.952 536.729 509.518 552.422C479.197 566.627 425.286 559.41 373.191 511.25C318.453 460.647 283.302 388.639 277.398 316.177C257.809 313.139 238.392 312.33 219.567 313.768C148.997 319.341 92.2183 361.772 78.2857 419.352L38.2665 404.353C55.4136 333.512 124.09 281.402 209.162 274.684C231.237 272.988 254.012 273.942 276.987 277.524C280.059 225.602 297.603 175.448 328.466 130.283L242.291 134.224C240.499 134.318 238.591 133.689 237.008 132.484C235.425 131.278 234.304 129.6 233.906 127.838L225.675 92.2842C224.84 88.5605 227.166 85.4709 230.954 85.2739L390.048 78.7733C391.83 78.6883 393.724 79.3164 395.297 80.5138C396.869 81.7112 397.985 83.3753 398.389 85.1251L435.247 240.899C436.083 244.622 433.756 247.712 429.969 247.909L393.704 249.567C391.913 249.662 390.005 249.033 388.422 247.828C386.84 246.623 385.72 244.945 385.323 243.184L364.761 154.394C337.044 194.769 320.837 240.453 317.93 286.352C360.559 298.115 404.097 318.034 446.193 345.398C491.445 374.818 520.996 405.213 536.534 438.324ZM373.312 479.154C396.617 500.665 432.14 518.936 455.121 508.158C475.619 498.546 477.951 467.734 467.286 445.002C456.537 422.116 434.577 400.118 400.094 377.697C366.605 355.925 332.237 339.863 298.643 329.988C299.489 338.13 300.8 346.314 302.569 354.503C312.77 401.626 337.782 446.31 373.312 479.154Z" fill="#4AE472"/>
</g>
</svg>
