<?xml version="1.0" encoding="UTF-8"?>
<svg width="619px" height="126px" viewBox="0 0 619 126" version="1.1" xmlns="http://www.w3.org/2000/svg" xmlns:xlink="http://www.w3.org/1999/xlink">
    <title>SDG 7 - Affordable and clean energy</title>
    <g id="Webpage" stroke="none" stroke-width="1" fill="none" fill-rule="evenodd">
        <g id="WEBPAGE" transform="translate(-411.000000, -4966.000000)" fill-rule="nonzero">
            <g id="Content" transform="translate(-393.000000, 2.000000)">
                <g id="6---do-good" transform="translate(392.500000, 4550.000000)">
                    <g id="SDG-7---Affordable-and-clean-energy" transform="translate(412.000000, 414.000000)">
                        <rect id="_Path_" fill="#FCC30B" x="0" y="0.1225" width="618" height="125.00375"></rect>
                        <polygon id="_Path_2" fill="#FFFFFF" points="12.84203 14.05625 19.3963857 14.05625 13.7347245 35.8025 17.9440357 35.8025 23.4917626 14.5025 23.4917626 10.59875 12.84203 10.59875"></polygon>
                        <g id="Group" transform="translate(30.549433, 46.875000)" fill="#FFFFFF">
                            <path d="M32.0518639,13.8112485 C24.6282966,13.8082162 17.9340355,18.2705613 15.0911705,25.1171231 C12.2483055,31.963685 13.8168162,39.8458468 19.0651758,45.087502 C24.3135354,50.3291572 32.2079366,51.8978191 39.0665645,49.0618904 C45.9251925,46.2259616 50.3970536,39.5440556 50.3965478,32.1325 C50.3972396,22.0161076 42.184652,13.814011 32.0518639,13.8112485 M30.6934157,21.04875 C30.6934157,20.44 31.3056564,19.7675 32.059376,19.7675 C32.8130956,19.7675 33.4178241,20.44 33.4178241,21.04875 L33.4178241,27.34 C33.4178241,27.94625 32.8105916,28.61125 32.059376,28.61125 C31.3081605,28.61125 30.6934157,27.94625 30.6934157,27.34 L30.6934157,21.04875 Z M32.0518639,41.52 C27.3397638,41.5125503 23.3381147,38.073296 22.6299468,33.4222463 C21.9217789,28.7711966 24.7189989,24.3000953 29.2160251,22.895 L29.2160251,26.44375 C26.641625,27.7540297 25.3034544,30.6562068 25.9804956,33.4608522 C26.6575368,36.2654975 29.1730358,38.2404072 32.0626584,38.2359373 C34.952281,38.2314675 37.4616383,36.2487852 38.1299714,33.4420587 C38.7983045,30.6353323 37.4511328,27.737309 34.8726783,26.435 L34.8726783,22.88625 C39.3817288,24.2798678 42.1934829,28.7545479 41.4881011,33.4141625 C40.7827193,38.0737771 36.7720341,41.5190023 32.0518639,41.52" id="_Compound_Path_"></path>
                            <path d="M10.9840235,31.9725 C10.9840235,31.14125 10.2465802,30.4725 9.5742423,30.4725 L1.53748784,30.4725 C0.860141815,30.4725 0.116438412,31.145 0.116438412,31.9725 C0.116438412,32.8 0.860141815,33.48125 1.53748784,33.48125 L9.5742423,33.48125 C10.2465802,33.48125 10.9840235,32.805 10.9840235,31.9725" id="_Path_3"></path>
                            <path d="M63.9872893,31.9725 C63.9872893,31.14125 63.249846,30.4725 62.5775081,30.4725 L54.5420057,30.4725 C53.8646596,30.4725 53.1209562,31.145 53.1209562,31.9725 C53.1209562,32.8 53.8646596,33.48125 54.5420057,33.48125 L62.5775081,33.48125 C63.249846,33.48125 63.9872893,32.805 63.9872893,31.9725" id="_Path_4"></path>
                            <path d="M32.0518639,10.94125 C32.8819571,10.94125 33.554295,10.205 33.554295,9.53375 L33.554295,1.51 C33.554295,0.83375 32.879453,0.09125 32.0518639,0.09125 C31.2242747,0.09125 30.5381645,0.83375 30.5381645,1.51 L30.5381645,9.53375 C30.5381645,10.205 31.2180146,10.94125 32.0518639,10.94125" id="_Path_5"></path>
                            <path d="M32.0518639,63.8575 C32.8819571,63.8575 33.554295,63.12125 33.554295,62.45 L33.554295,54.4275 C33.554295,53.7525 32.879453,53.00875 32.0518639,53.00875 C31.2242747,53.00875 30.5381645,53.7525 30.5381645,54.4275 L30.5381645,62.45 C30.5381645,63.12125 31.2180146,63.8575 32.0518639,63.8575" id="_Path_6"></path>
                            <path d="M13.7722853,21.52375 C14.1867058,20.8025 13.8824635,19.85375 13.2965154,19.52375 L6.32273096,15.53875 C5.73427877,15.2025 4.75519449,15.41375 4.34077391,16.13875 C3.92635332,16.86375 4.23685575,17.8175 4.82405592,18.15375 L11.7990924,22.13875 C12.3825365,22.4725 13.3591167,22.25125 13.7722853,21.5275" id="_Path_7"></path>
                            <path d="M59.770466,47.80875 C60.1823825,47.09 59.8781402,46.13875 59.2946961,45.80875 L52.3209117,41.82375 C51.7324595,41.48875 50.7521232,41.69875 50.3389546,42.425 C49.9257861,43.15125 50.2337844,44.10375 50.8209846,44.43875 L57.7960211,48.42375 C58.3794652,48.7575 59.3560454,48.53625 59.770466,47.8125" id="_Path_8"></path>
                            <path d="M42.5200527,13.72125 C43.2412196,14.1325 44.1915073,13.82875 44.5232942,13.24625 L48.5135008,6.2825 C48.8515478,5.695 48.6387034,4.71625 47.9137804,4.30375 C47.1888574,3.89125 46.2310575,4.19875 45.8955146,4.78625 L41.907812,11.75 C41.5735211,12.33375 41.7951297,13.30875 42.5200527,13.7225" id="_Path_9"></path>
                            <path d="M16.1924514,59.64875 C16.9136183,60.06 17.863906,59.75625 18.1956929,59.1725 L22.1858995,52.21 C22.5226945,51.62375 22.3111021,50.64375 21.5849271,50.23125 C20.858752,49.81875 19.9072123,50.125 19.5716694,50.71375 L15.5802107,57.67625 C15.2459198,58.25875 15.4675284,59.235 16.1924514,59.64875" id="_Path_10"></path>
                            <path d="M21.5523744,13.73875 C22.2722893,13.325 22.4901418,12.35125 22.1545989,11.76875 L18.1481159,4.81375 C17.8100689,4.2275 16.8560251,3.92 16.1348582,4.33375 C15.4136912,4.7475 15.1945867,5.73 15.5338857,6.31625 L19.5403687,13.27 C19.8771637,13.8525 20.8299554,14.15375 21.5548784,13.73875" id="_Path_11"></path>
                            <path d="M47.9738776,59.6125 C48.6950446,59.19875 48.9116451,58.225 48.5773541,57.64375 L44.5708712,50.68875 C44.2328241,50.10125 43.2787804,49.79375 42.5563614,50.2075 C41.8339425,50.62125 41.61609,51.60375 41.956641,52.19125 L45.963124,59.145 C46.2986669,59.7275 47.2527107,60.0275 47.9763817,59.6125" id="_Path_12"></path>
                            <path d="M50.3176702,21.49125 C50.7320908,22.21125 51.7061669,22.4275 52.289611,22.09375 L59.2546313,18.09375 C59.8430835,17.75625 60.1535859,16.8025 59.7379133,16.0825 C59.3222407,15.3625 58.3406524,15.145 57.7522002,15.4825 L50.7871799,19.4825 C50.2024838,19.8175 49.9019976,20.77125 50.3176702,21.4925" id="_Path_13"></path>
                            <path d="M4.3695705,47.875 C4.78399109,48.595 5.75806726,48.81125 6.34276337,48.47625 L13.3077836,44.47625 C13.8949838,44.13875 14.2054862,43.185 13.7885616,42.465 C13.371637,41.745 12.3913006,41.5275 11.8041005,41.86375 L4.83908023,45.86375 C4.25438412,46.1975 3.95389789,47.1525 4.3695705,47.87375" id="_Path_14"></path>
                        </g>
                        <g id="_Group_" transform="translate(35.432334, 10.375000)" fill="#FFFFFF">
                            <path d="M0.0600972447,10.425 L1.99197326,0.20875 L3.95514992,0.20875 L5.90205024,10.425 L4.13168558,10.425 L3.81492301,8.5575 L1.99197326,8.5575 L1.69023501,10.425 L0.0600972447,10.425 Z M2.21858995,7.185 L3.59581848,7.185 L2.91722042,3.08625 L2.90219611,3.08625 L2.21858995,7.185 Z" id="_Compound_Path_2"></path>
                            <polygon id="_Compound_Path_3" points="6.53557536 0.20875 10.5658468 0.20875 10.5658468 1.61 8.255859 1.61 8.255859 4.53375 9.97739465 4.53375 9.97739465 5.92 8.255859 5.92 8.255859 10.42 6.53557536 10.42"></polygon>
                            <polygon id="_Compound_Path_4" points="11.2444449 0.20875 15.2747164 0.20875 15.2747164 1.61 12.9647285 1.61 12.9647285 4.53375 14.6862642 4.53375 14.6862642 5.92 12.9647285 5.92 12.9647285 10.42 11.2444449 10.42"></polygon>
                            <path d="M15.8030713,7.78875 L15.8030713,2.845 C15.8030713,1.25 16.5880916,0.0875 18.4047812,0.0875 C20.2214708,0.0875 21.0165073,1.2475 21.0165073,2.845 L21.0165073,7.78875 C21.0165073,9.37125 20.231487,10.54625 18.4047812,10.54625 C16.5780754,10.54625 15.8030713,9.375 15.8030713,7.78875 Z M19.2899635,8.06 L19.2899635,2.57375 C19.2899635,1.95625 19.0182739,1.51875 18.3985211,1.51875 C17.7787682,1.51875 17.5221029,1.95625 17.5221029,2.57375 L17.5221029,8.06 C17.5221029,8.6775 17.7937925,9.115 18.3985211,9.115 C19.0032496,9.115 19.2899635,8.6775 19.2899635,8.06 L19.2899635,8.06 Z" id="_Compound_Path_5"></path>
                            <path d="M23.6357455,5.73875 L23.6357455,10.425 L21.9104538,10.425 L21.9104538,0.20875 L24.4145057,0.20875 C26.1573258,0.20875 26.7933549,1.0675 26.7933549,2.5 L26.7933549,3.81125 C26.7933549,4.91125 26.4014708,5.56125 25.4161264,5.785 L27.0612885,10.42625 L25.250859,10.42625 L23.6357455,5.73875 Z M23.6357455,1.61375 L23.6357455,4.7925 L24.2091734,4.7925 C24.7988776,4.7925 25.0555429,4.49125 25.0555429,3.94875 L25.0555429,2.44875 C25.0555429,1.89125 24.7988776,1.62 24.2091734,1.62 L23.6357455,1.61375 Z" id="_Compound_Path_6"></path>
                            <path d="M32.8030794,2.95125 L32.8030794,7.6825 C32.8030794,9.25 32.15453,10.425 30.3127998,10.425 L27.6509927,10.425 L27.6509927,0.20875 L30.3077917,0.20875 C32.1495219,0.20875 32.8030794,1.375 32.8030794,2.95125 Z M30.1012075,9.02375 C30.8111062,9.02375 31.0827958,8.6025 31.0827958,7.98375 L31.0827958,2.63375 C31.0827958,2.03125 30.8111062,1.61 30.1012075,1.61 L29.3762844,1.61 L29.3762844,9.02375 L30.1012075,9.02375 Z" id="_Compound_Path_7"></path>
                            <path d="M33.2049797,10.425 L35.1368558,0.20875 L37.1000324,0.20875 L39.0469327,10.425 L37.2803241,10.425 L36.9635616,8.5575 L35.1368558,8.5575 L34.8351175,10.425 L33.2049797,10.425 Z M35.3634724,7.185 L36.740701,7.185 L36.0583468,3.08625 L36.0433225,3.08625 L35.3634724,7.185 Z" id="_Compound_Path_8"></path>
                            <path d="M39.6804579,0.20875 L42.1707374,0.20875 C43.8922731,0.20875 44.465701,1.00625 44.465701,2.45875 L44.465701,3.5 C44.465701,4.35875 44.1476864,4.90125 43.4390397,5.125 C44.2991815,5.32 44.7223663,5.89375 44.7223663,6.8275 L44.7223663,8.18375 C44.7223663,9.63 44.0725648,10.43375 42.3522812,10.43375 L39.6804579,10.43375 L39.6804579,0.20875 Z M41.4007415,4.51875 L42.00547,4.51875 C42.5638736,4.51875 42.8205389,4.23125 42.8205389,3.68875 L42.8205389,2.43875 C42.8205389,1.88125 42.5701337,1.61 41.9904457,1.61 L41.4007415,1.61 L41.4007415,4.51875 Z M41.4007415,5.82875 L41.4007415,9.02375 L42.1519571,9.02375 C42.7253849,9.02375 42.9970746,8.7375 42.9970746,8.195 L42.9970746,6.6575 C42.9970746,6.115 42.7404092,5.82875 42.1369327,5.82875 L41.4007415,5.82875 Z" id="_Compound_Path_9"></path>
                            <polygon id="_Compound_Path_10" points="45.5061345 0.20875 47.2276702 0.20875 47.2276702 9.02375 49.2797407 9.02375 49.2797407 10.425 45.5061345 10.425"></polygon>
                            <polygon id="_Compound_Path_11" points="49.9883874 0.20875 54.0950324 0.20875 54.0950324 1.61 51.708671 1.61 51.708671 4.53375 53.4139303 4.53375 53.4139303 5.92 51.708671 5.92 51.708671 9.02375 54.0875203 9.02375 54.0875203 10.425 49.9808752 10.425"></polygon>
                            <path d="M56.1771515,10.425 L58.1090276,0.20875 L60.0709522,0.20875 L62.0191045,10.425 L60.2524959,10.425 L59.9357334,8.5575 L58.1090276,8.5575 L57.8072893,10.425 L56.1771515,10.425 Z M58.3356442,7.185 L59.7128728,7.185 L59.0342747,3.08625 L59.0179984,3.08625 L58.3356442,7.185 Z" id="_Compound_Path_12"></path>
                            <polygon id="_Compound_Path_13" points="64.1037277 4.00625 64.1037277 10.425 62.6526297 10.425 62.6526297 0.20875 64.3428647 0.20875 66.1996191 6.07 66.1996191 0.20875 67.6331888 0.20875 67.6331888 10.425 66.1244976 10.425"></polygon>
                            <path d="M73.6854822,2.95125 L73.6854822,7.6825 C73.6854822,9.25 73.0369327,10.425 71.1952026,10.425 L68.5384036,10.425 L68.5384036,0.20875 L71.1952026,0.20875 C73.0369327,0.20875 73.6854822,1.375 73.6854822,2.95125 Z M70.9898703,9.02375 C71.699769,9.02375 71.9714587,8.6025 71.9714587,7.98375 L71.9714587,2.63375 C71.9714587,2.03125 71.699769,1.61 70.9898703,1.61 L70.2661994,1.61 L70.2661994,9.02375 L70.9898703,9.02375 Z" id="_Compound_Path_14"></path>
                        </g>
                        <g id="_Group_2" transform="translate(35.682739, 25.500000)" fill="#FFFFFF">
                            <path d="M0.0676094003,7.66625 L0.0676094003,2.75 C0.0676094003,1.16125 0.818824959,0 2.62049028,0 C4.51230146,0 5.03815235,1.05 5.03815235,2.54875 L5.03815235,3.75 L3.47562399,3.75 L3.47562399,2.41875 C3.47562399,1.79375 3.26528363,1.43 2.6505389,1.43 C2.03579417,1.43 1.77412075,1.86375 1.77412075,2.47875 L1.77412075,7.93625 C1.77412075,8.55125 2.02452593,8.985 2.6505389,8.985 C3.27655186,8.985 3.47562399,8.595 3.47562399,7.99625 L3.47562399,6.125 L5.03815235,6.125 L5.03815235,7.875 C5.03815235,9.32875 4.4371799,10.40875 2.62049028,10.40875 C0.803800648,10.40875 0.0676094003,9.24 0.0676094003,7.66625 Z" id="_Compound_Path_15"></path>
                            <polygon id="_Compound_Path_16" points="6.11865073 0.125 7.83017018 0.125 7.83017018 8.895 9.87222447 8.895 9.87222447 10.29 6.11614668 10.29"></polygon>
                            <polygon id="_Compound_Path_17" points="10.8037318 0.125 14.8878404 0.125 14.8878404 1.52 12.5202593 1.52 12.5202593 4.4275 14.2167545 4.4275 14.2167545 5.8025 12.5202593 5.8025 12.5202593 8.89 14.8991086 8.89 14.8991086 10.285 10.8037318 10.285"></polygon>
                            <path d="M15.6841288,10.29 L17.6059887,0.125 L19.5578971,0.125 L21.4947812,10.29 L19.7419449,10.29 L19.4264344,8.43125 L17.6059887,8.43125 L17.3055024,10.29 L15.6841288,10.29 Z M17.8313533,7.06625 L19.1973136,7.06625 L18.5212196,2.98875 L18.5061953,2.98875 L17.8313533,7.06625 Z" id="_Compound_Path_18"></path>
                            <polygon id="_Compound_Path_19" points="23.7884927 3.90375 23.7884927 10.29 22.3499149 10.29 22.3499149 0.125 24.0388979 0.125 25.8856361 5.9575 25.8856361 0.125 27.3116937 0.125 27.3116937 10.29 25.8092626 10.29"></polygon>
                            <polygon id="_Compound_Path_20" points="31.8853444 0.125 35.969453 0.125 35.969453 1.52 33.5968639 1.52 33.5968639 4.4275 35.293359 4.4275 35.293359 5.8025 33.5968639 5.8025 33.5968639 8.89 35.969453 8.89 35.969453 10.285 31.8853444 10.285"></polygon>
                            <polygon id="_Compound_Path_21" points="38.4371961 3.90375 38.4371961 10.29 36.9911062 10.29 36.9911062 0.125 38.672577 0.125 40.5193152 5.9575 40.5193152 0.125 41.9428687 0.125 41.9428687 10.29 40.4404376 10.29"></polygon>
                            <polygon id="_Compound_Path_22" points="43.0571718 0.125 47.1412804 0.125 47.1412804 1.52 44.7686912 1.52 44.7686912 4.4275 46.4651864 4.4275 46.4651864 5.8025 44.7686912 5.8025 44.7686912 8.89 47.1412804 8.89 47.1412804 10.285 43.0571718 10.285"></polygon>
                            <path d="M49.8894773,5.625 L49.8894773,10.2875 L48.1767058,10.2875 L48.1767058,0.125 L50.6694895,0.125 C52.3972853,0.125 53.0270543,0.98 53.0270543,2.40375 L53.0270543,3.70875 C53.0270543,4.8025 52.6364222,5.4475 51.661094,5.6725 L53.2974919,10.29 L51.4958266,10.29 L49.8894773,5.625 Z M49.8894773,1.5175 L49.8894773,4.68 L50.4566451,4.68 C51.0425932,4.68 51.2980065,4.38 51.2980065,3.84125 L51.2980065,2.34125 C51.2980065,1.78625 51.0476013,1.5175 50.4566451,1.5175 L49.8894773,1.5175 Z" id="_Compound_Path_23"></path>
                            <path d="M56.6904822,4.8625 L59.1231686,4.8625 L59.1231686,10.29 L57.8924271,10.29 L57.8924271,9.18 C57.6670624,9.945 57.1862844,10.41 56.2560292,10.41 C54.7836467,10.41 54.1088047,9.24 54.1088047,7.66625 L54.1088047,2.75 C54.1088047,1.16125 54.8737925,0 56.6754579,0 C58.5685211,0 59.1231686,1.05 59.1231686,2.54875 L59.1231686,3.44875 L57.5618922,3.44875 L57.5618922,2.41375 C57.5618922,1.78875 57.3215032,1.425 56.7067585,1.425 C56.0920138,1.425 55.8203241,1.85875 55.8203241,2.47375 L55.8203241,7.93125 C55.8203241,8.54625 56.0707293,8.98 56.6604335,8.98 C57.2163331,8.98 57.501795,8.665 57.501795,8.00625 L57.501795,6.2125 L56.6904822,6.2125 L56.6904822,4.8625 Z" id="_Compound_Path_24"></path>
                            <polygon id="_Compound_Path_25" points="63.5528363 6.42125 63.5528363 10.29 61.8413169 10.29 61.8413169 6.42125 59.9344814 0.125 61.7248784 0.125 62.7615559 3.97875 62.7765802 3.97875 63.8082496 0.125 65.4446475 0.125"></polygon>
                        </g>
                    </g>
                </g>
            </g>
        </g>
    </g>
</svg>