<?xml version="1.0" encoding="UTF-8"?>
<svg width="619px" height="125px" viewBox="0 0 619 125" version="1.1" xmlns="http://www.w3.org/2000/svg" xmlns:xlink="http://www.w3.org/1999/xlink">
    <title>SDG 6 - Clean Water and sanitation</title>
    <g id="Webpage" stroke="none" stroke-width="1" fill="none" fill-rule="evenodd">
        <g id="WEBPAGE" transform="translate(-411.000000, -4826.000000)" fill-rule="nonzero">
            <g id="Content" transform="translate(-393.000000, 2.000000)">
                <g id="6---do-good" transform="translate(392.500000, 4550.000000)">
                    <g id="SDG-6---Clean-Water-and-sanitation" transform="translate(412.000000, 274.000000)">
                        <rect id="Rectangle" fill="#26BDE2" x="0" y="0" width="618" height="125"></rect>
                        <path d="M18.9444044,36.01125 C23.4516977,36.01125 25.1982739,33.55625 25.1982739,29.6525 L25.1982739,25.935 C25.1982739,21.81 23.560624,19.7275 20.5056807,19.7275 C18.7190397,19.7275 17.6397934,20.5475 17.0062682,21.77375 L16.9699595,21.77375 L16.9699595,16.34625 C16.9699595,14.82 17.4544935,13.74375 18.9807131,13.74375 C20.5069327,13.74375 20.953906,14.63625 20.953906,16.1975 L20.953906,17.875 L24.8264222,17.875 L24.8264222,16.53125 C24.8264222,12.81375 23.5969327,10.2125 18.9055916,10.2125 C14.438363,10.2125 12.7619003,13.07375 12.7619003,17.01375 L12.7619003,29.28125 C12.7619003,33.185 14.4746718,36.01125 18.9444044,36.01125 M16.9699595,25.415 C17.043829,24.00375 17.6397934,23.11125 18.9807131,23.11125 C20.4318112,23.11125 20.9902147,24.00375 20.9902147,25.64 L20.9902147,30.02625 C20.9902147,31.62375 20.3967545,32.55375 18.9444044,32.55375 C17.527111,32.55375 16.9699595,31.5875 16.9699595,30.02625 L16.9699595,25.415 Z" id="Shape" fill="#FFFFFF"></path>
                        <path d="M38.3733428,20.71625 C40.2000486,20.71625 40.8022731,19.6325 40.8022731,18.16875 L40.8022731,16.405 L39.2322326,16.405 L39.2322326,18.29 C39.2322326,18.8925 39.0231442,19.29 38.4021394,19.29 C37.7811345,19.29 37.5257212,18.85375 37.5257212,18.235 L37.5257212,12.7475 C37.5257212,12.13 37.7848906,11.6925 38.4021394,11.6925 C39.0193882,11.6925 39.2322326,12.05375 39.2322326,12.6925 L39.2322326,14.03375 L40.8022731,14.03375 L40.8022731,12.8275 C40.8022731,11.32125 40.2751702,10.265 38.3733428,10.265 C36.5591572,10.25 35.8079417,11.415 35.8079417,13.01375 L35.8079417,17.9575 C35.8079417,19.54125 36.5591572,20.71625 38.3745948,20.71625" id="Path" fill="#FFFFFF"></path>
                        <polygon id="Path" fill="#FFFFFF" points="45.6651418 19.195 43.6130713 19.195 43.6130713 10.375 41.8890316 10.375 41.8890316 20.5975 45.6651418 20.5975"></polygon>
                        <polygon id="Path" fill="#FFFFFF" points="50.7057982 19.195 48.3206888 19.195 48.3206888 16.09 50.0259481 16.09 50.0259481 14.70125 48.3206888 14.70125 48.3206888 11.7775 50.7057982 11.7775 50.7057982 10.375 46.6004052 10.375 46.6004052 20.5975 50.7057982 20.5975"></polygon>
                        <path d="M53.4389708,18.7275 L55.2644246,18.7275 L55.5824392,20.6025 L57.3427877,20.6025 L55.3983914,10.375 L53.4389708,10.375 L51.5058428,20.59625 L53.1334765,20.59625 L53.4389708,18.7275 Z M54.3441856,13.25 L54.3592099,13.25 L55.03906,17.34875 L53.6618314,17.34875 L54.3441856,13.25 Z" id="Shape" fill="#FFFFFF"></path>
                        <polygon id="Path" fill="#FFFFFF" points="59.6577836 14.175 61.6798055 20.5975 63.1884968 20.5975 63.1884968 10.375 61.7549271 10.375 61.7549271 16.24 59.8994246 10.375 58.2079376 10.375 58.2079376 20.5975 59.6577836 20.5975"></polygon>
                        <polygon id="Path" fill="#FFFFFF" points="69.5825932 20.59625 70.5491572 14.28 70.5629295 14.28 71.5745665 20.59625 73.2059562 20.59625 74.5331037 10.37625 73.0857618 10.37625 72.2994895 16.8575 72.2844652 16.8575 71.3341775 10.37625 69.9306564 10.37625 69.0705146 16.8575 69.0554903 16.8575 68.2541937 10.37625 66.5927553 10.37625 67.9687318 20.59625"></polygon>
                        <path d="M76.4875162,18.7275 L78.3154741,18.7275 L78.6309846,20.6025 L80.3975932,20.6025 L78.4494408,10.375 L76.4875162,10.375 L74.5581442,20.59625 L76.185778,20.59625 L76.4875162,18.7275 Z M77.395235,13.25 L77.4090073,13.25 L78.0888574,17.34875 L76.7116288,17.34875 L77.395235,13.25 Z" id="Shape" fill="#FFFFFF"></path>
                        <polygon id="Path" fill="#FFFFFF" points="81.6007901 20.59625 83.3373501 20.59625 83.3373501 11.7775 84.7558955 11.7775 84.7558955 10.375 80.1822447 10.375 80.1822447 11.7775 81.6007901 11.7775"></polygon>
                        <polygon id="Path" fill="#FFFFFF" points="89.6726013 19.195 87.2874919 19.195 87.2874919 16.09 88.9927512 16.09 88.9927512 14.70125 87.2874919 14.70125 87.2874919 11.7775 89.6726013 11.7775 89.6726013 10.375 85.5672083 10.375 85.5672083 20.5975 89.6726013 20.5975"></polygon>
                        <path d="M92.3256442,15.90625 L93.9395057,20.5975 L95.7524392,20.5975 L94.1060251,15.9525 C95.0876135,15.72875 95.4832536,15.0775 95.4832536,13.97875 L95.4832536,12.6675 C95.4832536,11.235 94.8497285,10.375 93.1131686,10.375 L90.6091167,10.375 L90.6091167,20.5975 L92.3294003,20.5975 L92.3256442,15.90625 Z M92.3256442,11.78125 L92.9003241,11.78125 C93.4862723,11.78125 93.7441896,12.0525 93.7441896,12.60875 L93.7441896,14.1125 C93.7441896,14.65625 93.4862723,14.95875 92.9003241,14.95875 L92.3256442,14.95875 L92.3256442,11.78125 Z" id="Shape" fill="#FFFFFF"></path>
                        <path d="M37.5382415,33.7975 L39.3649473,33.7975 L39.6817099,35.66625 L41.4420583,35.66625 L39.492654,25.44625 L37.5382415,25.44625 L35.6063655,35.66625 L37.2339992,35.66625 L37.5382415,33.7975 Z M38.4434562,28.325 L38.4609846,28.325 L39.1383306,32.42625 L37.7611021,32.42625 L38.4434562,28.325 Z" id="Shape" fill="#FFFFFF"></path>
                        <polygon id="Path" fill="#FFFFFF" points="42.1544611 25.44625 42.1544611 35.66875 43.6030551 35.66875 43.6030551 29.24625 45.625077 35.66875 47.1325162 35.66875 47.1325162 25.44625 45.7014506 25.44625 45.7014506 31.31125 43.8446961 25.44625"></polygon>
                        <path d="M48.3933063,35.6675 L51.0476013,35.6675 C52.8880794,35.6675 53.5378809,34.49125 53.5378809,32.92375 L53.5378809,28.19 C53.5378809,26.60875 52.8880794,25.4475 51.0476013,25.4475 L48.3933063,25.4475 L48.3933063,35.6675 Z M50.1123379,26.8475 L50.8322528,26.8475 C51.5434036,26.8475 51.8125891,27.27 51.8125891,27.87375 L51.8125891,33.22625 C51.8125891,33.8425 51.5434036,34.265 50.8322528,34.265 L50.1085818,34.265 L50.1123379,26.8475 Z" id="Shape" fill="#FFFFFF"></path>
                        <path d="M57.3615681,32.095 L57.3615681,33.47 C57.3615681,34.81 58.0426702,35.7925 59.7917504,35.7925 C61.5408306,35.7925 62.2958023,34.7925 62.2958023,33.39375 L62.2958023,32.89375 C62.2958023,31.76875 61.8450729,31.19 60.9098096,30.24 L59.8067747,29.155 C59.3059643,28.67375 58.9917058,28.34 58.9917058,27.77 L58.9917058,27.55625 C58.9917058,26.98375 59.3234927,26.71375 59.8067747,26.71375 C60.350154,26.71375 60.6218436,27 60.6218436,27.58875 L60.6218436,28.48 L62.1918841,28.48 L62.1918841,27.64875 C62.1918841,26.17125 61.5132861,25.3275 59.7917504,25.3275 C58.1165397,25.3275 57.3778444,26.3075 57.3778444,27.5775 L57.3778444,27.9225 C57.3778444,29.09875 57.8310778,29.6875 58.8114141,30.65125 L59.821799,31.6625 C60.350154,32.1625 60.5905429,32.52125 60.5905429,33.1075 L60.5905429,33.5 C60.5905429,34.0425 60.350154,34.405 59.8067747,34.405 C59.2195746,34.405 58.9629092,34.07375 58.9629092,33.5 L58.9629092,32.095 L57.3615681,32.095 Z" id="Path" fill="#FFFFFF"></path>
                        <path d="M64.4192382,35.6675 L64.7209765,33.7925 L66.5476823,33.7925 L66.8644449,35.6675 L68.6298015,35.6675 L66.6816491,25.4475 L64.7209765,25.4475 L62.7903525,35.6675 L64.4192382,35.6675 Z M65.6274433,28.3275 L65.6424676,28.3275 L66.3210656,32.42625 L64.9438371,32.42625 L65.6274433,28.3275 Z" id="Shape" fill="#FFFFFF"></path>
                        <polygon id="Path" fill="#FFFFFF" points="73.0231605 31.31125 71.166406 25.4475 69.474919 25.4475 69.474919 35.66875 70.926017 35.66875 70.926017 29.24625 72.9467869 35.66875 74.4554781 35.66875 74.4554781 25.4475 73.0231605 25.4475"></polygon>
                        <rect id="Rectangle" fill="#FFFFFF" x="75.8539911" y="25.44625" width="1.72153566" height="10.22125"></rect>
                        <polygon id="Path" fill="#FFFFFF" points="81.5093922 35.66875 81.5093922 26.84875 82.9291896 26.84875 82.9291896 25.44875 78.3567909 25.44875 78.3567909 26.84875 79.7740843 26.84875 79.7740843 35.66875"></polygon>
                        <path d="M86.4286021,25.4475 L84.4691815,25.4475 L82.5360535,35.6675 L84.1636872,35.6675 L84.4679295,33.79875 L86.2921313,33.79875 L86.6088938,35.6675 L88.3742504,35.6675 L86.4286021,25.4475 Z M84.6932942,32.42625 L85.3743963,28.3275 L85.3881686,28.3275 L86.0680186,32.42625 L84.6932942,32.42625 Z" id="Shape" fill="#FFFFFF"></path>
                        <polygon id="Path" fill="#FFFFFF" points="92.4007658 25.4475 87.8283671 25.4475 87.8283671 26.84875 89.2481645 26.84875 89.2481645 35.66875 90.9847245 35.66875 90.9847245 26.84875 92.4007658 26.84875"></polygon>
                        <rect id="Rectangle" fill="#FFFFFF" x="93.3410373" y="25.44625" width="1.72028363" height="10.22125"></rect>
                        <path d="M98.7735778,35.79 C100.600284,35.79 101.3828,34.61375 101.3828,33.03 L101.3828,28.085 C101.3828,26.48625 100.600284,25.32625 98.7735778,25.32625 C96.946872,25.32625 96.175624,26.48625 96.175624,28.085 L96.175624,33.03 C96.175624,34.61375 96.9631483,35.79 98.7735778,35.79 M97.8971596,27.81375 C97.8971596,27.19625 98.1675972,26.75875 98.7735778,26.75875 C99.3795583,26.75875 99.6637682,27.19625 99.6637682,27.81375 L99.6637682,33.30125 C99.6637682,33.91875 99.3920786,34.35625 98.7735778,34.35625 C98.155077,34.35625 97.8971596,33.91875 97.8971596,33.30125 L97.8971596,27.81375 Z" id="Shape" fill="#FFFFFF"></path>
                        <polygon id="Path" fill="#FFFFFF" points="107.48267 35.66875 107.48267 25.44875 106.0491 25.44875 106.0491 31.31125 104.192346 25.44875 102.500859 25.44875 102.500859 35.66875 103.950705 35.66875 103.950705 29.245 105.972727 35.66875"></polygon>
                        <path d="M85.7199554,50.545 C85.6147986,50.4297643 85.4654256,50.3647467 85.3092909,50.3658882 L39.8857901,50.3658882 C39.7297659,50.3603924 39.5795892,50.4259219 39.477918,50.5442246 C39.3762468,50.6625274 39.3341905,50.8206767 39.3636953,50.97375 L47.0010535,97.0525 C47.0442674,97.3077613 47.265102,97.4950088 47.5244003,97.49625 L56.8908063,97.49625 L57.5318436,104.99625 L53.590466,104.99625 L62.7615559,114.15125 L71.9539303,104.975 L68.0138047,104.975 L68.6473298,97.5 L78.1790032,97.5 C78.4417845,97.5011095 78.6646429,97.3074936 78.699846,97.0475 L85.8363938,50.9775 C85.8614447,50.8233361 85.8190461,50.6658504 85.7199554,50.545 Z M68.1640478,87.43375 C66.6921505,88.7768071 64.733275,89.4589775 62.7440276,89.32125 C60.7527219,89.4602769 58.7914133,88.7780472 57.3177472,87.43375 C53.9147407,84.04 55.1292058,79.8175 56.3161264,77.635 C57.0473096,76.26875 62.2757699,68.43 62.7264992,67.76 L62.7264992,67.7075 L62.7465316,67.7325 L62.76406,67.7075 L62.76406,67.76 C63.202269,68.4275 68.4394935,76.26 69.1706767,77.635 C70.3538412,79.8175 71.5645502,84.04 68.1640478,87.43375 Z M82.5736143,60.24 C81.3428728,59.69875 79.7815964,59.89375 78.2841734,60.49875 C72.6500567,62.78 68.8113452,63.6 62.8842545,61.74875 C59.1507131,60.58125 55.6575608,58.13875 51.5296313,59.62375 C48.7889465,60.6075 46.2360656,61.54625 43.1410575,61.5225 L41.3519125,52.365 L83.8594449,52.365 L82.5736143,60.24 Z" id="Shape" fill="#FFFFFF"></path>
                    </g>
                </g>
            </g>
        </g>
    </g>
</svg>