<?xml version="1.0" encoding="UTF-8"?>
<svg width="619px" height="125px" viewBox="0 0 619 125" version="1.1" xmlns="http://www.w3.org/2000/svg" xmlns:xlink="http://www.w3.org/1999/xlink">
    <title>SDG 13 - Climate action</title>
    <g id="Webpage" stroke="none" stroke-width="1" fill="none" fill-rule="evenodd">
        <g id="WEBPAGE" transform="translate(-411.000000, -5246.000000)" fill-rule="nonzero">
            <g id="Content" transform="translate(-393.000000, 2.000000)">
                <g id="6---do-good" transform="translate(392.500000, 4550.000000)">
                    <g id="SDG-13---Climate-action" transform="translate(412.000000, 694.000000)">
                        <rect id="Rectangle" fill="#3F7E44" x="0" y="0" width="618" height="125"></rect>
                        <polygon id="Path" fill="#FFFFFF" points="15.7775 10.485 15.7775 35.6775 11.54125 35.6775 11.54125 16.39375 11.50375 16.39375 8.5325 19.4775 8.49375 19.4775 8.49375 15.055 12.395 10.485"></polygon>
                        <path d="M29.75,15.94875 L29.75,18.14 C29.75,20.25625 28.59875,21.66875 26.8525,22.2275 C28.97,22.71 29.9775,24.19625 29.9775,26.5 L29.9775,30.21625 C29.9775,33.7075 28.12,35.975 23.84625,35.975 C19.535,35.975 18.01,33.5225 18.01,29.695 L18.01,26.38875 L21.875,26.38875 L21.875,30 C21.875,31.48625 22.39375,32.45 23.845,32.45 C25.14375,32.45 25.7375,31.5225 25.7375,30.18375 L25.7375,26.0175 C25.7375,24.67875 25.14375,23.97375 23.65875,23.97375 L21.875,23.97375 L21.875,20.74125 L23.47375,20.74125 C24.84875,20.74125 25.7375,20.03375 25.7375,18.6975 L25.7375,15.985 C25.7375,14.61 25.25625,13.71875 23.91875,13.71875 C22.58125,13.71875 22.09875,14.61 22.09875,16.17 L22.09875,18.73375 L18.22875,18.73375 L18.22875,16.5 C18.22875,12.78375 19.7525,10.1825 24.1375,10.1825 C28.04,10.1825 29.74875,12.37625 29.74875,15.94375" id="Path" fill="#FFFFFF"></path>
                        <path d="M108.38625,78.25 C105.0925,73.63625 90.195,55.19375 62.5,55.19375 C34.805,55.19375 19.915,73.63625 16.61625,78.25 C16.47625,78.4475 16.355,78.625 16.2575,78.76375 C16.355,78.9125 16.47625,79.0825 16.61625,79.2825 C19.915,83.90375 34.8075,102.3475 62.5,102.3475 C90.1925,102.3475 105.0925,83.90375 108.38625,79.2875 C108.53,79.0875 108.64875,78.9125 108.7425,78.76875 C108.649167,78.62375 108.530417,78.4525 108.38625,78.255 M47.05625,66.855 C47.30625,66.48875 48.135,65.44375 48.235,65.31125 C48.44875,65.03625 48.8725,64.98 49.16875,64.9275 C49.465,64.875 49.855,65.03625 49.9025,65.2575 C49.95,65.47875 49.78875,66.33625 49.64375,66.48375 C49.2375,66.905 48.18,67.5 47.5975,67.40625 C47.14625,67.3375 46.9725,66.98875 47.05625,66.855 M46.06625,68.8225 C46.11,68.77 46.15,68.7275 46.16625,68.70625 C46.515,68.30875 47.20875,68.22375 47.6875,68.14875 C48.16625,68.07375 48.8125,68.30875 48.885,68.6275 C48.9575,68.94625 47.68125,69.5275 47.44625,69.7525 C46.78,70.36625 45.7375,71.61625 45.1275,71.7525 C44.9600051,71.7949218 44.7829059,71.7767691 44.6275,71.70125 C45.0250872,70.7042521 45.505954,69.7425185 46.065,68.82625 M56.42875,90.08625 C56.05375,91.56125 55.61625,92.0925 55.24375,92.5575 C54.87125,93.0225 53.49375,93.62875 52.61875,93.56375 C51.74375,93.49875 51.61875,91.1575 51.61875,89.9525 C51.61875,89.5375 51.03,90.77 50.7225,88.26375 C50.52625,86.66 49.49625,88.43125 49.42375,87.36125 C49.35125,86.29125 48.83625,86.50625 48.29875,85.83875 C47.76125,85.17125 47.08875,85.90375 46.33625,86.24125 C45.58375,86.57875 45.89625,86.74875 44.83625,86.41375 C44.80875,86.405 44.795,86.3975 44.76875,86.3875 C43.7603662,84.0112857 43.2412498,81.4563237 43.2412498,78.875 C43.2412498,78.22375 43.27625,77.5825 43.3375,76.95 C43.3713581,76.886413 43.4111162,76.8261481 43.45625,76.77 C44.47625,75.5625 44.45625,75.28 44.45625,75.28 L45.58125,74.89 C45.58125,74.89 47.38375,75.1675 48.7412498,75.67875 C49.86,76.0975 51.61625,77.04625 52.645,76.62875 C53.38625,76.32375 53.965,75.91875 53.895,75.3025 C53.8125,74.52875 53.2025,74.345 52.465,74.86625 C52.19375,75.05875 51.61375,73.7 51.15875,73.77 C50.70375,73.84 51.72125,75.365 51.33625,75.43 C50.95125,75.495 50.1725,73.8375 50.04,73.56875 C49.9075,73.3 49.30875,72.63625 48.77,73.14375 C47.6325,74.225 45.785,74.15875 45.41375,74.4375 C44.28875,75.2825 43.98625,74.15875 44.01125,73.475 C44.05625,73.31875 44.1025,73.16125 44.1525,73.00625 C44.52125,72.6 45.845,72.465 46.3,72.7675 C46.8,73.10125 47.1575,72.6825 47.3525,72.48 C47.5475,72.2775 47.4775,71.96125 47.3525,71.69625 C47.2275,71.43125 47.6025,71.23125 47.86,71.1625 C48.1175,71.09375 48.97875,70.49125 49.3225,70.2875 C49.66625,70.08375 51.4475,69.87125 52.25125,70.27125 C52.9040824,70.6162185 53.7095579,70.4536599 54.1775,69.8825 C54.5708419,69.4138193 55.0444816,69.018908 55.57625,68.71625 C55.85625,68.59125 54.8875,67.6825 54.0925,68.6675 C53.2975,69.6525 52.88875,69.7375 52.51375,69.7375 C52.13875,69.7375 49.91125,69.1825 49.63875,68.47875 C49.36625,67.775 50.33625,67.24875 51.1575,66.85375 C51.97875,66.45875 54.22875,66.4675 54.80375,66.3375 C55.9725,66.08125 57.4675,65.49375 58.22,66.00625 C58.9725,66.51875 55.07625,67.39625 56.35625,68.0875 C56.81125,68.3375 58.86875,66.90375 59.575,66.53625 C61.23375,65.68125 57.96625,65.39875 58.39,63.66125 C58.86875,61.69625 54.38125,62.45625 52.14,62.62375 C57.3957331,59.2615538 63.9532008,58.6493573 69.7404652,60.9805939 C75.5277296,63.3118305 79.8298493,68.2985061 81.2875,74.365 C81.2988506,74.665857 81.2672834,74.9667969 81.19375,75.25875 C81.01875,75.95375 79.69375,76.55125 78.935,75.4325 C78.74,75.15 77.9125,74.36875 77.935,75.705 C77.9575,77.04125 79.235,77.17875 78.00125,77.98125 C76.7675,78.78375 76.54375,78.59 75.97375,78.7925 C75.40375,78.995 74.84875,80.37125 74.99,81.1075 C75.13125,81.84375 76.88625,83.8575 75.58125,83.7725 C75.275,83.74875 72.97,82.175 72.59,81.1625 C72.1875,80.09625 71.75,79.05375 71.43875,78.25 C71.1275,77.44625 70.31375,77.25 69.62125,77.71625 C68.92875,78.1825 69.8125,78.655 69.31875,79.66 C68.825,80.665 68.47375,81.55875 67.75,80.73 C65.86625,78.5725 63.125,79.63625 62.70125,77.23 C62.47,75.92875 61.34875,76.05375 60.41125,75.31625 C59.47375,74.57875 58.945,74.19125 58.78625,74.715 C58.6475,75.18125 61.735,77.63 61.955,78.25625 C62.28375,79.18875 61.03125,80.00625 60.11375,80.23125 C59.19625,80.45625 58.79875,79.7175 57.89875,78.78 C56.99875,77.8425 56.6075,77.1775 56.545,77.9125 C56.455,78.97375 57.39875,80.5375 58.31375,81.115 C59.095,81.60875 59.97,81.8325 59.71625,82.635 C59.4625,83.4375 59.71625,82.985 58.84125,83.85 C57.96625,84.715 57.79875,84.99875 57.8625,86.2 C57.92625,87.40125 57.6125,87.47375 57.42375,88.475 C57.235,89.47625 56.79875,88.61 56.42375,90.07875 M77.125,82.39 C77.7725,82.3375 78.75,83.23625 78.36625,83.58125 C77.9825,83.92625 77.015,83.79875 76.52625,83.41625 C76.0375,83.03375 76.8325,82.41625 77.125,82.39 M76.30375,81.7975 C76.09625,81.72 75.9125,81.5225 75.755,81.0475 C75.5975,80.5725 75.99625,80.2975 76.38,80.49375 C76.76375,80.69 77.29,81.285 77.29,81.6 C77.29,81.915 76.51125,81.87875 76.29875,81.795 M67.785,81.76125 C67.40375,82.10125 66.42875,81.97625 65.94125,81.59625 C65.45375,81.21625 66.24875,80.59625 66.53875,80.57 C67.1875,80.51125 68.16375,81.41875 67.78875,81.76125 M59.91375,85.5925 C59.64875,86.02625 58.9225,89.27 58.43625,88.8925 C57.95,88.515 58.63375,85.13 58.77375,84.8725 C59.53625,83.475 61.18375,83.54375 59.91375,85.5925 M62.53875,98.1650174 C60.7039397,98.1654782 58.8784516,97.9040929 57.1175,97.38875 C56.8340857,97.1644448 56.7379938,96.776994 56.88375,96.44625 C57.48,94.89 59.25875,94.28 60.66125,94.145 C63.78625,93.84 67.90125,96.17625 68.555,95.79875 C69.20875,95.42125 70.53375,93.7025 72.47375,93.775 C73.79875,93.82625 73.78875,94.04875 74.23375,94.21625 C70.8757487,96.7828095 66.7652578,98.1706933 62.53875,98.1650174 M76.145,92.55 C75.9363599,92.495831 75.7336789,92.4208725 75.54,92.32625 C74.48625,91.79 74.6125,92.64625 74.095,92.45125 C73.5775,92.25625 74.67875,91.0575 73.12375,92.07625 C71.56875,93.095 71.9925,91.91875 71.3175,90.20125 C70.6425,88.48375 72.095,86.5225 73.3175,86.07625 C74.99375,85.47 76.03375,85.34625 76.8175,85.1525 C79.135,84.57375 79.625,83.19875 80.045,84.035 C80.125,84.19125 80.20125,84.34125 80.27125,84.48125 C80.4590485,84.878144 80.5588273,85.3109455 80.56375,85.75 C79.5882904,88.3060089 78.0808341,90.6255658 76.14125,92.555 M81.42625,82.81625 C80.90875,82.675 78.7425,79.68 80.455,77.71 C80.74,77.38625 79.88,76.4325 80.115,76.41375 C81.0525,76.34125 81.55,76.9225 81.79625,77.76 C81.815,78.135 81.83,78.5025 81.83,78.885 C81.8295941,80.2078112 81.6943111,81.527134 81.42625,82.8225" id="Shape" fill="#FFFFFF"></path>
                        <path d="M39.8875,18.2 L39.8875,13.15375 C39.8875,11.52875 40.65625,10.33875 42.5025,10.33875 C44.44125,10.33875 44.98,11.415 44.98,12.95375 L44.98,14.185 L43.375,14.185 L43.375,12.81 C43.375,12.16375 43.16,11.795 42.52875,11.795 C41.8975,11.795 41.64125,12.25 41.64125,12.875 L41.64125,18.475 C41.64125,19.1 41.9025,19.55125 42.53375,19.55125 C43.165,19.55125 43.38,19.15125 43.38,18.53625 L43.38,16.615 L44.98,16.615 L44.98,18.415 C44.98,19.9075 44.365,21.015 42.5025,21.015 C40.64,21.015 39.8875,19.815 39.8875,18.2 Z" id="Path" fill="#FFFFFF"></path>
                        <polygon id="Path" fill="#FFFFFF" points="46.08625 10.46125 47.83625 10.46125 47.83625 19.46125 49.92875 19.46125 49.92875 20.8925 46.08625 20.8925"></polygon>
                        <polygon id="Path" fill="#FFFFFF" points="50.88375 10.46125 52.63375 10.46125 52.63375 20.8925 50.88375 20.8925"></polygon>
                        <polygon id="Path" fill="#FFFFFF" points="58.77625 14.125 58.73 14.125 57.54625 20.89375 56.73 20.89375 55.4225 14.125 55.39125 14.125 55.39125 20.89375 53.94625 20.89375 53.94625 10.46125 55.99125 10.46125 57.13 16.33625 57.14625 16.33625 58.16125 10.46125 60.375 10.46125 60.375 20.8925 58.77625 20.8925"></polygon>
                        <path d="M61.25,20.8925 L63.22,10.46125 L65.22,10.46125 L67.205,20.8925 L65.405,20.8925 L65.08125,18.98375 L63.22125,18.98375 L62.9125,20.8925 L61.25,20.8925 Z M63.45,17.585 L64.85125,17.585 L64.15875,13.4 L64.1425,13.4 L63.45,17.585 Z" id="Shape" fill="#FFFFFF"></path>
                        <polygon id="Path" fill="#FFFFFF" points="66.97125 10.46125 71.63375 10.46125 71.63375 11.8925 70.1875 11.8925 70.1875 20.8925 68.4175 20.8925 68.4175 11.8925 66.97125 11.8925"></polygon>
                        <polygon id="Path" fill="#FFFFFF" points="72.60125 10.46125 76.78625 10.46125 76.78625 11.8925 74.355 11.8925 74.355 14.875 76.09375 14.875 76.09375 16.29 74.355 16.29 74.355 19.45875 76.78625 19.45875 76.78625 20.89 72.60125 20.89"></polygon>
                        <path d="M39.58125,35.6775 L41.55125,25.25 L43.55125,25.25 L45.53625,35.68 L43.73625,35.68 L43.4125,33.7725 L41.55125,33.7725 L41.2425,35.68 L39.58125,35.6775 Z M41.78125,32.375 L43.1825,32.375 L42.49,28.19125 L42.47375,28.19125 L41.78125,32.375 Z" id="Shape" fill="#FFFFFF"></path>
                        <path d="M46.04,32.98625 L46.04,27.94 C46.04,26.30875 46.81,25.125 48.65625,25.125 C50.59375,25.125 51.1325,26.20125 51.1325,27.74 L51.1325,28.97 L49.5325,28.97 L49.5325,27.60125 C49.5325,26.955 49.3175,26.58625 48.68625,26.58625 C48.055,26.58625 47.79375,27.0325 47.79375,27.6625 L47.79375,33.2625 C47.79375,33.8875 48.05625,34.34 48.68625,34.34 C49.31625,34.34 49.5325,33.94 49.5325,33.32375 L49.5325,31.40125 L51.1325,31.40125 L51.1325,33.20125 C51.1325,34.69375 50.5175,35.80125 48.65625,35.80125 C46.795,35.80125 46.04,34.60125 46.04,32.98625 Z" id="Path" fill="#FFFFFF"></path>
                        <polygon id="Path" fill="#FFFFFF" points="51.75 25.25 56.4125 25.25 56.4125 26.68125 54.96125 26.68125 54.96125 35.68125 53.19125 35.68125 53.19125 26.68125 51.75 26.68125"></polygon>
                        <polygon id="Path" fill="#FFFFFF" points="57.375 25.25 59.125 25.25 59.125 35.68 57.375 35.68"></polygon>
                        <path d="M60.29625,32.98625 L60.29625,27.94 C60.29625,26.30875 61.0975,25.125 62.9425,25.125 C64.7875,25.125 65.605,26.30875 65.605,27.94 L65.605,32.98625 C65.605,34.60125 64.80375,35.80125 62.9425,35.80125 C61.08125,35.80125 60.29625,34.60125 60.29625,32.98625 Z M63.85125,33.2625 L63.85125,27.6625 C63.85125,27.0375 63.57375,26.58625 62.9425,26.58625 C62.31125,26.58625 62.05,27.0325 62.05,27.6625 L62.05,33.2625 C62.05,33.8875 62.3275,34.34 62.9425,34.34 C63.5575,34.34 63.85125,33.89375 63.85125,33.2625 L63.85125,33.2625 Z" id="Shape" fill="#FFFFFF"></path>
                        <polygon id="Path" fill="#FFFFFF" points="68.2325 29.125 68.2325 35.67875 66.75625 35.67875 66.75625 25.25 68.48 25.25 70.375 31.23125 70.375 25.25 71.8375 25.25 71.8375 35.68 70.295 35.68"></polygon>
                    </g>
                </g>
            </g>
        </g>
    </g>
</svg>