<?xml version="1.0" encoding="UTF-8"?>
<svg width="619px" height="125px" viewBox="0 0 619 125" version="1.1" xmlns="http://www.w3.org/2000/svg" xmlns:xlink="http://www.w3.org/1999/xlink">
    <title>SDG 11 - Sustainable cities and communities</title>
    <g id="Webpage" stroke="none" stroke-width="1" fill="none" fill-rule="evenodd">
        <g id="WEBPAGE" transform="translate(-411.000000, -5106.000000)" fill-rule="nonzero">
            <g id="Content" transform="translate(-393.000000, 2.000000)">
                <g id="6---do-good" transform="translate(392.500000, 4550.000000)">
                    <g id="SDG-11---Sustainable-cities-and-communities" transform="translate(412.000000, 554.000000)">
                        <rect id="Rectangle" fill="#FD9D24" x="0" y="0" width="618" height="125"></rect>
                        <path d="M36.6874797,20.8 C38.4431615,20.8 39.1955966,19.8 39.1955966,18.40375 L39.1955966,17.90375 C39.1955966,16.77875 38.7416274,16.20125 37.8048458,15.25125 L36.7012744,14.16625 C36.199651,13.68375 35.8861364,13.3525 35.8861364,12.7775 L35.8861364,12.56875 C35.8861364,11.995 36.2184619,11.72375 36.7012744,11.72375 C37.2442817,11.72375 37.5176664,12.01 37.5176664,12.59875 L37.5176664,13.48625 L39.0890016,13.48625 L39.0890016,12.65875 C39.0890016,11.1825 38.410556,10.3375 36.6862256,10.3375 C35.0070414,10.3375 34.2671469,11.3175 34.2671469,12.5875 L34.2671469,12.93625 C34.2671469,14.11 34.7211161,14.69875 35.7030438,15.6625 L36.715069,16.675 C37.2442817,17.175 37.4863149,17.5325 37.4863149,18.12 L37.4863149,18.51125 C37.4863149,19.055 37.2442817,19.41625 36.7012744,19.41625 C36.1118669,19.41625 35.8547849,19.085 35.8547849,18.51125 L35.8547849,17.11125 L34.2558604,17.11125 L34.2558604,18.48625 C34.2558604,19.8275 34.934306,20.8075 36.6874797,20.8075" id="Path" fill="#FFFFFF"></path>
                        <path d="M44.954233,18.1925 L44.954233,10.45875 L43.366595,10.45875 L43.366595,18.3575 C43.366595,18.96125 43.1245617,19.36625 42.5188515,19.36625 C41.9131412,19.36625 41.6736161,18.96125 41.6736161,18.3575 L41.6736161,10.45875 L39.9492857,10.45875 L39.9492857,18.1925 C39.9492857,19.775 40.7017208,20.8 42.5188515,20.8 C44.2745333,20.8 44.954233,19.775 44.954233,18.1925" id="Path" fill="#FFFFFF"></path>
                        <path d="M50.7743182,18.40375 L50.7743182,17.90375 C50.7743182,16.77875 50.319095,16.20125 49.3848214,15.25125 L48.28125,14.16625 C47.7796266,13.685 47.4636039,13.3525 47.4636039,12.78125 L47.4636039,12.57 C47.4636039,11.99625 47.7984375,11.725 48.28125,11.725 C48.8255114,11.725 49.096388,12.01 49.096388,12.6 L49.096388,13.4875 L50.663961,13.4875 L50.663961,12.66 C50.663961,11.18125 49.9855154,10.33875 48.2611851,10.33875 C46.5832549,10.33875 45.8421063,11.31875 45.8421063,12.58875 L45.8421063,12.935 C45.8421063,14.11 46.2973295,14.69875 47.2805114,15.66375 L48.2912825,16.675 C48.8204951,17.175 49.0612744,17.5325 49.0612744,18.12 L49.0612744,18.51375 C49.0612744,19.05375 48.8204951,19.4175 48.2762338,19.4175 C47.6868263,19.4175 47.4297443,19.085 47.4297443,18.51375 L47.4297443,17.10625 L45.8320739,17.10625 L45.8320739,18.48125 C45.8320739,19.8225 46.5105195,20.80125 48.2649472,20.80125 C50.019375,20.80125 50.7730641,19.80125 50.7730641,18.405" id="Path" fill="#FFFFFF"></path>
                        <polygon id="Path" fill="#FFFFFF" points="55.7717411 10.45875 51.1919196 10.45875 51.1919196 11.86125 52.6115138 11.86125 52.6115138 20.68 54.3508929 20.68 54.3508929 11.86125 55.7717411 11.86125"></polygon>
                        <path d="M59.3458076,10.45875 L57.3806981,10.45875 L55.4456859,20.67875 L57.0759619,20.67875 L57.3781899,18.81125 L59.2066071,18.81125 L59.525138,20.67875 L61.2946144,20.67875 L59.3458076,10.45875 Z M57.6089367,17.43875 L58.2873823,13.33875 L58.3036851,13.33875 L58.9846388,17.43875 L57.6089367,17.43875 Z" id="Shape" fill="#FFFFFF"></path>
                        <rect id="Rectangle" fill="#FFFFFF" x="61.9918709" y="10.46" width="1.7230763" height="10.22125"></rect>
                        <polygon id="Path" fill="#FFFFFF" points="69.6880276 20.68 69.6880276 10.45875 68.2521307 10.45875 68.2521307 16.32125 66.391108 10.45875 64.6981291 10.45875 64.6981291 20.68 66.1503287 20.68 66.1503287 14.2575 68.1743791 20.68"></polygon>
                        <path d="M72.1798417,18.81 L74.009513,18.81 L74.3255357,20.685 L76.0937581,20.685 L74.1449513,10.45875 L72.1798417,10.45875 L70.2448295,20.67875 L71.8751055,20.67875 L72.1798417,18.81 Z M73.0852719,13.3375 L73.1015747,13.3375 L73.7837825,17.43875 L72.4043182,17.43875 L73.0852719,13.3375 Z" id="Shape" fill="#FFFFFF"></path>
                        <path d="M81.4423174,13.75 L81.4423174,12.71125 C81.4423174,11.26375 80.8692127,10.46125 79.1448823,10.46125 L76.649306,10.46125 L76.649306,20.6825 L79.3254667,20.6825 C81.0497971,20.6825 81.6981453,19.88375 81.6981453,18.4325 L81.6981453,17.0775 C81.6981453,16.1425 81.2767817,15.56875 80.4139894,15.37375 C81.1250406,15.1475 81.4423174,14.605 81.4423174,13.74875 M78.3786526,11.86125 L78.9693141,11.86125 C79.5424188,11.86125 79.8007549,12.13125 79.8007549,12.69 L79.8007549,13.94 C79.8007549,14.48375 79.5424188,14.77 78.9831088,14.77 L78.3786526,14.77 L78.3786526,11.86125 Z M79.9800852,18.44875 C79.9800852,18.99125 79.7092086,19.27875 79.1348498,19.27875 L78.3824148,19.27875 L78.3824148,16.0825 L79.1223093,16.0825 C79.7267654,16.0825 79.9838474,16.36875 79.9838474,16.91 L79.9800852,18.44875 Z" id="Shape" fill="#FFFFFF"></path>
                        <polygon id="Path" fill="#FFFFFF" points="84.1310187 10.45875 82.4079424 10.45875 82.4079424 20.68 86.1851664 20.68 86.1851664 19.2775 84.1310187 19.2775"></polygon>
                        <polygon id="Path" fill="#FFFFFF" points="90.9305235 11.86125 90.9305235 10.45875 86.8184659 10.45875 86.8184659 20.68 90.9305235 20.68 90.9305235 19.2775 88.5415422 19.2775 88.5415422 16.17125 90.2495698 16.17125 90.2495698 14.78625 88.5415422 14.78625 88.5415422 11.86125"></polygon>
                        <path d="M96.3982183,20.8 C98.2278896,20.8 98.8335998,19.715 98.8335998,18.2525 L98.8335998,16.48875 L97.2597565,16.48875 L97.2597565,18.375 C97.2597565,18.975 97.0478206,19.3675 96.4283157,19.3675 C95.8088109,19.3675 95.5504748,18.93125 95.5504748,18.3125 L95.5504748,12.82625 C95.5504748,12.20125 95.8012865,11.77 96.4283157,11.77 C97.055345,11.77 97.2597565,12.13125 97.2597565,12.77 L97.2597565,14.1125 L98.8335998,14.1125 L98.8335998,12.90625 C98.8335998,11.3975 98.3031331,10.3425 96.3982183,10.3425 C94.5848498,10.3425 93.8286526,11.5025 93.8286526,13.1 L93.8286526,18.04625 C93.8286526,19.62875 94.5810877,20.80375 96.3982183,20.80375" id="Path" fill="#FFFFFF"></path>
                        <rect id="Rectangle" fill="#FFFFFF" x="99.6424675" y="10.46" width="1.72182224" height="10.22125"></rect>
                        <polygon id="Path" fill="#FFFFFF" points="105.184152 20.68 105.184152 11.86125 106.602492 11.86125 106.602492 10.45875 102.023925 10.45875 102.023925 11.86125 103.443519 11.86125 103.443519 20.68"></polygon>
                        <rect id="Rectangle" fill="#FFFFFF" x="107.275921" y="10.46" width="1.72182224" height="10.22125"></rect>
                        <polygon id="Path" fill="#FFFFFF" points="109.885617 20.68 113.99642 20.68 113.99642 19.2775 111.608693 19.2775 111.608693 16.17125 113.314213 16.17125 113.314213 14.78625 111.608693 14.78625 111.608693 11.86125 113.99642 11.86125 113.99642 10.45875 109.885617 10.45875"></polygon>
                        <path d="M116.917123,14.1675 C116.415499,13.68375 116.103239,13.35375 116.103239,12.77875 L116.103239,12.57 C116.103239,11.99625 116.43431,11.725 116.917123,11.725 C117.463892,11.725 117.733515,12.01125 117.733515,12.6 L117.733515,13.48875 L119.307358,13.48875 L119.307358,12.66 C119.307358,11.18125 118.626404,10.33875 116.902074,10.33875 C115.224144,10.33875 114.485503,11.31875 114.485503,12.58875 L114.485503,12.9375 C114.485503,14.11125 114.936964,14.7 115.920146,15.66375 L116.932171,16.67625 C117.463892,17.17625 117.704671,17.53375 117.704671,18.12125 L117.704671,18.5125 C117.704671,19.05625 117.463892,19.4175 116.917123,19.4175 C116.327715,19.4175 116.070633,19.08625 116.070633,18.5125 L116.070633,17.1125 L114.4692,17.1125 L114.4692,18.4875 C114.4692,19.82875 115.1489,20.80875 116.902074,20.80875 C118.655248,20.80875 119.410191,19.80875 119.410191,18.4125 L119.410191,17.9125 C119.410191,16.7875 118.952459,16.21 118.018186,15.26 L116.917123,14.1675 Z" id="Path" fill="#FFFFFF"></path>
                        <path d="M36.2159537,25.46125 L34.2809416,35.68 L35.9112175,35.68 L36.2134456,33.81125 L38.0418628,33.81125 L38.3603937,35.68 L40.1298701,35.68 L38.1798093,25.46125 L36.2159537,25.46125 Z M36.4429383,32.44 L37.122638,28.34 L37.1389407,28.34 L37.8173864,32.44 L36.4429383,32.44 Z" id="Shape" fill="#FFFFFF"></path>
                        <polygon id="Path" fill="#FFFFFF" points="44.546664 31.32375 42.6868953 25.46125 40.9939164 25.46125 40.9939164 35.68125 42.4461161 35.68125 42.4461161 29.2575 44.4701664 35.68125 45.9825609 35.68125 45.9825609 25.46125 44.546664 25.46125"></polygon>
                        <path d="M49.7785958,25.45875 L47.1174838,25.45875 L47.1174838,35.68125 L49.7785958,35.68125 C51.6233157,35.68125 52.271664,34.50625 52.271664,32.9375 L52.271664,28.20375 C52.271664,26.62125 51.6233157,25.45375 49.7785958,25.45375 M50.5485877,33.23375 C50.5485877,33.85125 50.276457,34.27375 49.5666599,34.27375 L48.839306,34.27375 L48.839306,26.8625 L49.5666599,26.8625 C50.276457,26.8625 50.5485877,27.28375 50.5485877,27.88625 L50.5485877,33.23375 Z" id="Shape" fill="#FFFFFF"></path>
                        <path d="M57.7155317,25.34 C55.9009091,25.34 55.1447119,26.5 55.1447119,28.09875 L55.1447119,33.04375 C55.1447119,34.625 55.8971469,35.80125 57.7155317,35.80125 C59.5339164,35.80125 60.148405,34.715 60.148405,33.2525 L60.148405,31.49 L58.5758157,31.49 L58.5758157,33.375 C58.5758157,33.97875 58.3651339,34.375 57.7468831,34.375 C57.1286323,34.375 56.8690422,33.93875 56.8690422,33.32 L56.8690422,27.8325 C56.8690422,27.215 57.1273782,26.7775 57.7468831,26.7775 C58.366388,26.7775 58.5758157,27.13875 58.5758157,27.7775 L58.5758157,29.11875 L60.148405,29.11875 L60.148405,27.9125 C60.148405,26.405 59.6204464,25.35125 57.7155317,25.35125" id="Path" fill="#FFFFFF"></path>
                        <path d="M63.8403531,25.34 C62.0244765,25.34 61.2394359,26.5 61.2394359,28.09875 L61.2394359,33.04375 C61.2394359,34.625 62.0244765,35.80125 63.8403531,35.80125 C65.6562297,35.80125 66.4538109,34.625 66.4538109,33.04375 L66.4538109,28.09875 C66.4538109,26.5 65.6687703,25.34 63.8403531,25.34 M64.7307346,33.31375 C64.7307346,33.9325 64.4586039,34.36875 63.8403531,34.36875 C63.2221023,34.36875 62.9625122,33.9325 62.9625122,33.31375 L62.9625122,27.82625 C62.9625122,27.20875 63.2321347,26.77125 63.8403531,26.77125 C64.4485714,26.77125 64.7307346,27.20875 64.7307346,27.82625 L64.7307346,33.31375 Z" id="Shape" fill="#FFFFFF"></path>
                        <polygon id="Path" fill="#FFFFFF" points="70.7326583 31.21875 70.7176096 31.21875 69.6002435 25.45875 67.5899878 25.45875 67.5899878 35.68 69.009582 35.68 69.009582 29.0475 69.0396794 29.0475 70.3250893 35.68 71.1251786 35.68 72.2901989 29.0475 72.335345 29.0475 72.335345 35.68 73.9079343 35.68 73.9079343 25.45875 71.7308888 25.45875"></polygon>
                        <polygon id="Path" fill="#FFFFFF" points="78.1880357 31.21875 78.172987 31.21875 77.0543669 25.45875 75.0428571 25.45875 75.0428571 35.68 76.4649594 35.68 76.4649594 29.0475 76.4938028 29.0475 77.7779586 35.68 78.580556 35.68 79.7430682 29.0475 79.7894683 29.0475 79.7894683 35.68 81.3608036 35.68 81.3608036 25.45875 79.1850122 25.45875"></polygon>
                        <path d="M85.9117817,33.35875 C85.9117817,33.9625 85.6722565,34.37125 85.0665463,34.37125 C84.460836,34.37125 84.2200568,33.9625 84.2200568,33.35875 L84.2200568,25.46125 L82.4957265,25.46125 L82.4957265,33.19125 C82.4957265,34.77625 83.2481615,35.80125 85.0665463,35.80125 C86.8222281,35.80125 87.4994196,34.77625 87.4994196,33.19125 L87.4994196,25.46125 L85.9117817,25.46125 L85.9117817,33.35875 Z" id="Path" fill="#FFFFFF"></path>
                        <polygon id="Path" fill="#FFFFFF" points="92.1895982 31.32375 90.3273214 25.46125 88.6355966 25.46125 88.6355966 35.68125 90.0877963 35.68125 90.0877963 29.2575 92.1118466 35.68125 93.622987 35.68125 93.622987 25.46125 92.1895982 25.46125"></polygon>
                        <polygon id="Path" fill="#FFFFFF" points="8.98532873 15.04875 8.98532873 19.47125 9.02169643 19.47125 12.0051015 16.38625 12.0439773 16.38625 12.0439773 35.67875 16.2952354 35.67875 16.2952354 10.475 12.9004992 10.475"></polygon>
                        <polygon id="Path" fill="#FFFFFF" points="18.6817086 15.04875 18.6817086 19.47125 18.7193304 19.47125 21.7027354 16.38625 21.7391031 16.38625 21.7391031 35.67875 25.9916153 35.67875 25.9916153 10.475 22.5993872 10.475"></polygon>
                        <rect id="Rectangle" fill="#FFFFFF" x="94.7616721" y="25.45875" width="1.7230763" height="10.22125"></rect>
                        <polygon id="Path" fill="#FFFFFF" points="97.4227841 26.86125 98.8436323 26.86125 98.8436323 35.68 100.581757 35.68 100.581757 26.86125 102.002606 26.86125 102.002606 25.45875 97.4227841 25.45875"></polygon>
                        <rect id="Rectangle" fill="#FFFFFF" x="102.95569" y="25.45875" width="1.72433036" height="10.22125"></rect>
                        <polygon id="Path" fill="#FFFFFF" points="105.829992 35.68 109.94205 35.68 109.94205 34.27875 107.551814 34.27875 107.551814 31.17375 109.261096 31.17375 109.261096 29.78625 107.551814 29.78625 107.551814 26.86125 109.94205 26.86125 109.94205 25.45875 105.829992 25.45875"></polygon>
                        <path d="M113.282861,29.16875 C112.781238,28.685 112.466469,28.35375 112.466469,27.7825 L112.466469,27.57 C112.466469,26.99625 112.798795,26.72625 113.282861,26.72625 C113.827123,26.72625 114.097999,27.0125 114.097999,27.60125 L114.097999,28.49125 L115.671843,28.49125 L115.671843,27.66125 C115.671843,26.18375 114.990889,25.34125 113.267813,25.34125 C111.588628,25.34125 110.848734,26.32125 110.848734,27.59125 L110.848734,27.9375 C110.848734,29.1125 111.302703,29.70125 112.285885,30.665 L113.299164,31.67625 C113.827123,32.17625 114.069156,32.535 114.069156,33.1225 L114.069156,33.515 C114.069156,34.0575 113.827123,34.42 113.282861,34.42 C112.693454,34.42 112.436372,34.08875 112.436372,33.515 L112.436372,32.10875 L110.833685,32.10875 L110.833685,33.48375 C110.833685,34.825 111.513385,35.805 113.267813,35.805 C115.02224,35.805 115.775929,34.805 115.775929,33.41 L115.775929,32.91 C115.775929,31.785 115.32196,31.20875 114.385179,30.2575 L113.282861,29.16875 Z" id="Path" fill="#FFFFFF"></path>
                        <g id="Group" transform="translate(20.064935, 49.250000)" fill="#FFFFFF">
                            <g transform="translate(0.000000, 32.750000)" id="Path">
                                <path d="M0.627029221,13.1637599 L19.4855601,13.1637599 C19.6689326,13.1649454 19.8355201,13.0575218 19.9095918,12.8903139 C19.9836636,12.7231061 19.9510841,12.5280233 19.826664,12.39375 L19.8003287,12.36625 L10.4149554,0.26375 L10.3234091,0.1625 C10.2360249,0.0667795989 10.1121434,0.0123028714 9.98230519,0.0124994669 C9.8701748,0.0147460368 9.76254134,0.0568620998 9.67882305,0.13125 L9.62239042,0.19625 L9.53335227,0.295 L0.378725649,12.27125 L0.238271104,12.4425 C0.186474545,12.518422 0.158932952,12.6081872 0.159262447,12.7 C0.159262447,12.8234285 0.208625634,12.9417656 0.296421211,13.0288078 C0.384216788,13.11585 0.50320175,13.1644154 0.627029221,13.1637599 L0.627029221,13.1637599 Z"></path>
                                <path d="M19.4278734,14.875 L0.526704545,14.875 C0.403976261,14.875 0.286274607,14.9235958 0.199492604,15.010097 C0.112710602,15.0965982 0.0639552789,15.2139189 0.0639552789,15.33625 L0.0639552789,30.07375 C0.0636239337,30.1964128 0.112190559,30.3141834 0.198972659,30.4011535 C0.285754758,30.4881236 0.403643525,30.5371689 0.526704545,30.5375 L6.61014205,30.5375 L6.61014205,21.26125 C6.60980781,21.1388171 6.65845409,21.0213027 6.74530866,20.9347292 C6.83216322,20.8481557 6.95005917,20.7996668 7.07288961,20.8 L12.7161526,20.8 C12.838983,20.7996668 12.956879,20.8481557 13.0437336,20.9347292 C13.1305881,21.0213027 13.1792344,21.1388171 13.1789002,21.26125 L13.1789002,30.5375 L19.4241112,30.5375 C19.5471722,30.5371689 19.665061,30.4881236 19.7518431,30.4011535 C19.8386252,30.3141834 19.8871918,30.1964128 19.8868605,30.07375 L19.8868605,15.33125 C19.8841335,15.0799175 19.6800284,14.8770288 19.4278734,14.875 Z"></path>
                            </g>
                            <path d="M84.7530317,43.7599141 L66.0462419,43.7599141 C65.9264061,43.7579961 65.810715,43.8037035 65.7247976,43.8869966 C65.6388802,43.9702897 65.5898291,44.0842924 65.5885106,44.20375 L65.5885106,63.0325 C65.5926342,63.2805474 65.7973795,63.4784796 66.0462419,63.4750636 L84.7530317,63.4750636 C84.8727714,63.4770058 84.9884046,63.4315083 85.0744847,63.34852 C85.1605648,63.2655316 85.210038,63.1518528 85.212017,63.0325 L85.212017,44.20375 C85.2107021,44.0840718 85.1614786,43.9698758 85.0752881,43.8865463 C84.9890977,43.8032169 84.8730827,43.7576591 84.7530317,43.7599141 M74.5174067,56.0525 C74.5160836,56.1718498 74.4672456,56.2857865 74.3816378,56.3692418 C74.2960301,56.4526971 74.1806665,56.4988335 74.0609294,56.4975 L68.4715909,56.4975 C68.35152,56.4991691 68.2357029,56.4532203 68.1496239,56.3697642 C68.0635449,56.2863081 68.014257,56.1721826 68.0126055,56.0525 L68.0126055,52.6675 C68.0139241,52.5477109 68.0631073,52.4333903 68.1492599,52.3498628 C68.2354125,52.2663353 68.3514225,52.2204962 68.4715909,52.2225 L74.0609294,52.2225 C74.1807649,52.2208321 74.2963217,52.2668594 74.3820028,52.3503862 C74.467684,52.433913 74.5164168,52.5480447 74.5174067,52.6675 L74.5174067,56.0525 Z M74.5174067,49.795 C74.5160836,49.9143498 74.4672456,50.0282865 74.3816378,50.1117418 C74.2960301,50.1951971 74.1806665,50.2413335 74.0609294,50.24 L68.4715909,50.24 C68.35152,50.2416691 68.2357029,50.1957203 68.1496239,50.1122642 C68.0635449,50.0288081 68.014257,49.9146826 68.0126055,49.795 L68.0126055,46.4075 C68.0174112,46.1592535 68.2225166,45.9615148 68.4715909,45.965 L74.0609294,45.965 C74.1803351,45.9633308 74.2955143,46.0090162 74.3811229,46.0920035 C74.4667316,46.1749908 74.5157552,46.2884804 74.5174067,46.4075 L74.5174067,49.795 Z M83.0600528,56.0525 C83.0587342,56.1722891 83.009551,56.2866097 82.9233984,56.3701372 C82.8372458,56.4536647 82.7212358,56.4995038 82.6010674,56.4975 L77.014237,56.4975 C76.8940686,56.4995038 76.7780586,56.4536647 76.691906,56.3701372 C76.6057534,56.2866097 76.5565702,56.1722891 76.5552516,56.0525 L76.5552516,52.6675 C76.5565702,52.5477109 76.6057534,52.4333903 76.691906,52.3498628 C76.7780586,52.2663353 76.8940686,52.2204962 77.014237,52.2225 L82.6010674,52.2225 C82.7212358,52.2204962 82.8372458,52.2663353 82.9233984,52.3498628 C83.009551,52.4333903 83.0587342,52.5477109 83.0600528,52.6675 L83.0600528,56.0525 Z M83.0600528,49.795 C83.0587342,49.9147891 83.009551,50.0291097 82.9233984,50.1126372 C82.8372458,50.1961647 82.7212358,50.2420038 82.6010674,50.24 L77.014237,50.24 C76.8940686,50.2420038 76.7780586,50.1961647 76.691906,50.1126372 C76.6057534,50.0291097 76.5565702,49.9147891 76.5552516,49.795 L76.5552516,46.4075 C76.5572307,46.2881472 76.6067038,46.1744684 76.692784,46.09148 C76.7788641,46.0084917 76.8944973,45.9629942 77.014237,45.965 L82.6010674,45.965 C82.7208071,45.9629942 82.8364403,46.0084917 82.9225204,46.09148 C83.0086005,46.1744684 83.0580737,46.2881472 83.0600528,46.4075 L83.0600528,49.795 Z" id="Shape"></path>
                            <path d="M41.2660471,0.055 L22.9567938,0.055 C22.8380566,0.0553310567 22.7243145,0.102664341 22.6405897,0.186586971 C22.556865,0.270509601 22.510016,0.384147 22.5103473,0.5025 L22.5103473,62.865 C22.5110337,63.1106867 22.7103124,63.3098784 22.9567938,63.31125 L41.2660471,63.31125 C41.5134312,63.3105736 41.7141934,63.1115759 41.7162541,62.865 L41.7162541,0.5 C41.7155628,0.252650514 41.5142006,0.0525 41.2660471,0.0525 M30.3758036,56.20625 C30.3758036,56.269902 30.3504358,56.3309469 30.305281,56.3759556 C30.2601261,56.4209644 30.198883,56.44625 30.1350244,56.44625 L25.943961,56.44625 C25.8109823,56.44625 25.7031818,56.3387983 25.7031818,56.20625 L25.7031818,51.55125 C25.7031818,51.4877124 25.7285886,51.4267952 25.7737799,51.3819848 C25.8189712,51.3371744 25.880218,51.3121673 25.943961,51.3124967 L30.1350244,51.3124967 C30.1987674,51.3121673 30.2600142,51.3371744 30.3052055,51.3819848 C30.3503968,51.4267952 30.3758036,51.4877124 30.3758036,51.55125 L30.3758036,56.20625 Z M30.3758069,45.5125 C30.3754718,45.5758207 30.3499175,45.6364165 30.3047625,45.6809566 C30.2596074,45.7254967 30.1985506,45.7503324 30.1350244,45.7500033 L25.943961,45.7500033 C25.8136331,45.747961 25.7088644,45.6424205 25.7081947,45.5125 L25.7081947,40.85875 C25.7078623,40.794996 25.7331222,40.7337564 25.77835,40.688675 C25.8235779,40.6435935 25.8850163,40.6184153 25.9489773,40.6187467 L30.1350244,40.6187467 C30.1989853,40.6184153 30.2604237,40.6435935 30.3056516,40.688675 C30.3508794,40.7337564 30.3761393,40.794996 30.3758069,40.85875 L30.3758069,45.5125 Z M30.3758036,34.82125 C30.3758036,34.884902 30.3504358,34.9459469 30.305281,34.9909556 C30.2601261,35.0359644 30.198883,35.06125 30.1350244,35.06125 L25.943961,35.06125 C25.8109823,35.06125 25.7031818,34.9537983 25.7031818,34.82125 L25.7031818,30.16375 C25.7038719,30.0316901 25.8114706,29.925 25.943961,29.925 L30.1350244,29.925 C30.2675148,29.925 30.3751135,30.0316901 30.3758036,30.16375 L30.3758036,34.82125 Z M30.3758036,24.1275 C30.3758036,24.2600483 30.268003,24.3675 30.1350244,24.3675 L25.943961,24.3675 C25.8119638,24.3647658 25.7067943,24.256591 25.7081842,24.125 L25.7081842,19.47 C25.7085283,19.4067925 25.7341228,19.3463236 25.7793146,19.3019818 C25.8245065,19.2576401 25.8855672,19.2330838 25.9489773,19.2337368 L30.1350244,19.2337368 C30.1984344,19.2330838 30.2594951,19.2576401 30.304687,19.3019818 C30.3498788,19.3463236 30.3754733,19.4067925 30.3758036,19.47 L30.3758036,24.1275 Z M30.3758036,13.43625 C30.3751135,13.5683099 30.2675148,13.675 30.1350244,13.675 L25.943961,13.675 C25.8114706,13.675 25.7038719,13.5683099 25.7031818,13.43625 L25.7031818,8.77875 C25.7031818,8.64620166 25.8109823,8.53875 25.943961,8.53875 L30.1350244,8.53875 C30.198883,8.53875 30.2601261,8.56403564 30.305281,8.60904437 C30.3504358,8.6540531 30.3758036,8.71509804 30.3758036,8.77875 L30.3758036,13.43625 Z M38.5961567,56.20625 C38.5961567,56.2701191 38.5706177,56.3313543 38.5251913,56.3763991 C38.4797648,56.4214439 38.418199,56.4465827 38.3541234,56.4462533 L34.1643141,56.4462533 C34.1003532,56.4465847 34.0389147,56.4214065 33.9936869,56.376325 C33.948459,56.3312436 33.9231991,56.270004 33.9235316,56.20625 L33.9235316,51.55125 C33.9235316,51.4877124 33.9489417,51.4267952 33.994133,51.3819848 C34.0393243,51.3371744 34.1005711,51.3121673 34.1643141,51.3124869 L38.3541234,51.3124869 C38.4180828,51.3118324 38.4796533,51.3366913 38.5251169,51.3815382 C38.5705805,51.4263851 38.5961567,51.487494 38.5961567,51.55125 L38.5961567,56.20625 Z M38.59616,45.5125 C38.5964962,45.5764724 38.5710648,45.6379045 38.5255642,45.6830228 C38.4800637,45.7281411 38.4183008,45.7531708 38.3541234,45.7525133 L34.1643141,45.7525133 C34.1002501,45.7531758 34.0386122,45.7281072 33.9933096,45.6829512 C33.9480069,45.6377951 33.9228569,45.5763567 33.9235215,45.5125 L33.9235215,40.85875 C33.9228569,40.7948933 33.9480069,40.7334549 33.9933096,40.6882988 C34.0386122,40.6431428 34.1002501,40.6180742 34.1643141,40.6187367 L38.3541234,40.6187367 C38.4183008,40.6180792 38.4800637,40.6431089 38.5255642,40.6882272 C38.5710648,40.7333455 38.5964962,40.7947776 38.59616,40.85875 L38.59616,45.5125 Z M38.5961567,34.82125 C38.5961567,34.8851191 38.5706177,34.9463543 38.5251913,34.9913991 C38.4797648,35.0364439 38.418199,35.0615827 38.3541234,35.0612533 L34.1643141,35.0612533 C34.1003532,35.0615847 34.0389147,35.0364065 33.9936869,34.991325 C33.948459,34.9462436 33.9231991,34.885004 33.9235316,34.82125 L33.9235316,30.16375 C33.9235316,30.1002124 33.9489417,30.0392952 33.994133,29.9944848 C34.0393243,29.9496744 34.1005711,29.9246673 34.1643141,29.9249967 L38.3541234,29.9249967 C38.4179823,29.9246676 38.479358,29.949635 38.5247483,29.9944095 C38.5701385,30.039184 38.5958249,30.1000978 38.5961567,30.16375 L38.5961567,34.82125 Z M38.5961567,24.1275 C38.5961567,24.1913691 38.5706177,24.2526043 38.5251913,24.2976491 C38.4797648,24.3426939 38.418199,24.3678327 38.3541234,24.3675033 L34.1643141,24.3675033 C34.1003532,24.3678347 34.0389147,24.3426565 33.9936869,24.297575 C33.948459,24.2524936 33.9231991,24.191254 33.9235316,24.1275 L33.9235316,19.47 C33.9238651,19.4067925 33.9494596,19.3463236 33.9946515,19.3019818 C34.0398433,19.2576401 34.1009041,19.2330838 34.1643141,19.2337203 L38.3541234,19.2337203 C38.4177493,19.2327477 38.4791339,19.257155 38.5245985,19.3015333 C38.570063,19.3459115 38.5958297,19.4065729 38.5961567,19.47 L38.5961567,24.1275 Z M38.5961567,13.43625 C38.5958249,13.4999022 38.5701385,13.560816 38.5247483,13.6055905 C38.479358,13.650365 38.4179823,13.6753324 38.3541234,13.6750033 L34.1643141,13.6750033 C34.1005711,13.6753327 34.0393243,13.6503256 33.994133,13.6055152 C33.9489417,13.5607048 33.9235316,13.4997876 33.9235316,13.43625 L33.9235316,8.77875 C33.9231991,8.71499603 33.948459,8.65375645 33.9936869,8.60867497 C34.0389147,8.56359348 34.1003532,8.53841533 34.1643141,8.53874671 L38.3541234,8.53874671 C38.418199,8.53841735 38.4797648,8.56355606 38.5251913,8.6086009 C38.5706177,8.65364573 38.5961567,8.71488087 38.5961567,8.77875 L38.5961567,13.43625 Z" id="Shape"></path>
                            <path d="M85.1906981,41.865 C85.1906981,42.0721068 85.0222597,42.24 84.8144805,42.24 L65.984793,42.24 C65.7770138,42.24 65.6085755,42.0721068 65.6085755,41.865 L65.6085755,38.115 C65.6085755,37.9078932 65.7770138,37.74 65.984793,37.74 L84.8144805,37.74 C85.0222597,37.74 85.1906981,37.9078932 85.1906981,38.115 L85.1906981,41.865 Z" id="Path"></path>
                            <path d="M63.3801136,11.83125 C63.3211987,11.6261761 63.1338761,11.4842308 62.9198742,11.4825 C62.825898,11.4849232 62.7347271,11.5149252 62.657776,11.56875 L62.6239164,11.59125 L62.4696672,11.78625 L44.4764367,34.53625 L44.3936688,34.6475 C44.2971105,34.7410261 44.2408855,34.8683557 44.2369115,35.0025 L44.2369115,62.95875 C44.2372437,63.077103 44.2847306,63.190477 44.3689257,63.2739308 C44.4531208,63.3573846 44.5671272,63.4037518 44.6858644,63.4037518 L62.9750528,63.4037518 C63.0936744,63.4037518 63.2075518,63.357345 63.2915479,63.2738553 C63.375544,63.1903656 63.4227516,63.0769882 63.4227516,62.95875 L63.4227516,12.01875 C63.421835,11.9539674 63.4073103,11.8900951 63.3801136,11.83125 L63.3801136,11.83125 Z M55.8056006,24.18625 L55.9310065,24.02625 C57.1612378,22.45125 59.2367045,19.90125 60.2474756,18.66875 L60.3804058,18.51125 C60.4794714,18.3912762 60.6270702,18.3216114 60.7829586,18.32125 C61.0289821,18.3224885 61.2394702,18.4976774 61.284582,18.73875 L61.284582,24.5 C61.2833477,24.7776994 61.0614442,25.0044143 60.7829586,25.0125 C60.7741802,25.0125 60.7679099,25.0125 60.7603856,25.0125 C60.7528612,25.0125 60.7453369,25.0125 60.7365584,25.0125 L56.2457752,25.0125 C56.2369968,25.0125 56.2307265,25.0125 56.2232021,25.0125 C56.2156778,25.0125 56.2081534,25.0125 56.2006291,25.0125 C55.922426,25.0037734 55.7008898,24.7774336 55.6990057,24.5 C55.6993662,24.3866458 55.7367883,24.2764983 55.8056006,24.18625 L55.8056006,24.18625 Z M52.9588898,56.04875 C52.9592223,56.1672047 52.9121615,56.2809038 52.8281291,56.3646643 C52.7440967,56.4484247 52.6300284,56.4953332 52.5111891,56.4950018 L47.0535268,56.4950018 C46.9346875,56.4953332 46.8206192,56.4484247 46.7365868,56.3646643 C46.6525544,56.2809038 46.6054936,56.1672047 46.6058262,56.04875 L46.6058262,52.645 C46.6058262,52.5267618 46.6530356,52.4133844 46.7370316,52.3298947 C46.8210277,52.246405 46.9349051,52.1996679 47.0535268,52.1999982 L52.5099351,52.1999982 C52.6285567,52.1996679 52.7424341,52.246405 52.8264302,52.3298947 C52.9104263,52.4133844 52.9576344,52.5267618 52.9576339,52.645 L52.9588898,56.04875 Z M52.9588898,49.75875 C52.9592223,49.8772047 52.9121615,49.9909038 52.8281291,50.0746643 C52.7440967,50.1584247 52.6300284,50.2053332 52.5111891,50.2050018 L47.0535268,50.2050018 C46.9346875,50.2053332 46.8206192,50.1584247 46.7365868,50.0746643 C46.6525544,49.9909038 46.6054936,49.8772047 46.6058208,49.75875 L46.6058208,46.355 C46.6051559,46.2364431 46.6521082,46.122548 46.7362142,46.0387143 C46.8203201,45.9548805 46.9345849,45.9080802 47.0535268,45.9087429 L52.5099351,45.9087429 C52.6288769,45.9080802 52.7431417,45.9548805 52.8272477,46.0387143 C52.9113536,46.122548 52.9583059,46.2364431 52.9576339,46.355 L52.9588898,49.75875 Z M52.958888,43.46875 C52.958888,43.5869882 52.9116803,43.7003656 52.8276843,43.7838553 C52.7436882,43.867345 52.6298108,43.9140821 52.5111891,43.9137518 L47.0535268,43.9137518 C46.9349051,43.9140821 46.8210277,43.867345 46.7370316,43.7838553 C46.6530356,43.7003656 46.6058262,43.5869882 46.6058262,43.46875 L46.6058262,40.06375 C46.6054936,39.9452953 46.6525544,39.8315962 46.7365868,39.7478357 C46.8206192,39.6640753 46.9346875,39.6171668 47.0535268,39.6174982 L52.5099351,39.6174982 C52.6287744,39.6171668 52.7428426,39.6640753 52.826875,39.7478357 C52.9109074,39.8315962 52.9579682,39.9452953 52.9576339,40.06375 L52.958888,43.46875 Z M52.9739367,29.685 L52.9739367,37.185 C52.9732478,37.4311721 52.7732092,37.6305633 52.5262378,37.631257 L47.0710836,37.631257 C46.9519125,37.6319155 46.8373932,37.5851939 46.7528901,37.5014336 C46.668387,37.4176732 46.6208766,37.3037873 46.6208766,37.185 L46.6208766,36.24125 C46.6229117,36.1843541 46.6343519,36.1281829 46.6547362,36.075 C46.6624897,36.0567835 46.6717165,36.0392256 46.6823255,36.0225 C46.6938059,36.0016944 46.7072428,35.9820228 46.7224554,35.96375 C46.7349959,35.9425 46.7563149,35.915 46.7726177,35.89125 C47.4698742,34.89125 50.6175609,31.03125 51.9393385,29.41625 L52.0722687,29.25625 C52.1713548,29.1364584 52.3190609,29.0672015 52.4748214,29.067499 C52.7202737,29.069115 52.930352,29.2434392 52.9764448,29.48375 L52.9739367,29.685 Z M61.2983766,56.04875 C61.2983766,56.1671029 61.2512085,56.2806083 61.1672487,56.3642964 C61.0832888,56.4479845 60.9694149,56.495007 60.8506778,56.495007 L55.3955235,56.495007 C55.2763524,56.4956655 55.1618331,56.4489439 55.07733,56.3651836 C54.992827,56.2814232 54.9453166,56.1675373 54.9453166,56.04875 L54.9453166,52.645 C54.9456479,52.5264295 54.9933071,52.4128652 55.0777738,52.3293754 C55.1622406,52.2458856 55.2765695,52.1993353 55.3955235,52.199993 L60.8506778,52.199993 C61.0974461,52.199993 61.2976854,52.3990312 61.2983766,52.645 L61.2983766,56.04875 Z M61.2983766,49.75875 C61.2983766,50.0052071 61.097935,50.205007 60.8506778,50.205007 L55.3955235,50.205007 C55.2763524,50.2056655 55.1618331,50.1589439 55.07733,50.0751836 C54.992827,49.9914232 54.9453147,49.8775373 54.9453147,49.75875 L54.9453147,46.355 C54.9449773,46.2361095 54.9923816,46.1220274 55.0769584,46.038194 C55.1615352,45.9543605 55.2762508,45.9077476 55.3955235,45.9087342 L60.8506778,45.9087342 C61.097935,45.9087342 61.2983766,46.1085429 61.2983766,46.355 L61.2983766,49.75875 Z M61.2983766,43.46875 C61.2970006,43.7144338 61.0971621,43.9130676 60.8506778,43.913757 L55.3955235,43.913757 C55.2765695,43.9144147 55.1622406,43.8678644 55.0777738,43.7843746 C54.9933071,43.7008848 54.9456479,43.5873205 54.9453166,43.46875 L54.9453166,40.06375 C54.9453166,39.9449627 54.992827,39.8310768 55.07733,39.7473164 C55.1618331,39.6635561 55.2763524,39.6168345 55.3955235,39.617493 L60.8506778,39.617493 C61.097935,39.617493 61.2983766,39.8172929 61.2983766,40.06375 L61.2983766,43.46875 Z M61.2983766,37.1775 C61.2976854,37.4234688 61.0974461,37.622507 60.8506778,37.622507 L55.3955235,37.622507 C55.2765695,37.6231647 55.1622406,37.5766144 55.0777738,37.4931246 C54.9933071,37.4096348 54.9456479,37.2960705 54.9453166,37.1775 L54.9453166,33.77375 C54.9453166,33.6549627 54.992827,33.5410768 55.07733,33.4573164 C55.1618331,33.3735561 55.2763524,33.3268345 55.3955235,33.327493 L60.8506778,33.327493 C61.097935,33.327493 61.2983766,33.5272929 61.2983766,33.77375 L61.2983766,37.1775 Z M61.2983784,30.88625 C61.2983784,31.0046029 61.2512085,31.1181083 61.1672487,31.2017964 C61.0832888,31.2854845 60.9694149,31.332507 60.8506778,31.332507 L55.3955235,31.332507 C55.2763524,31.3331655 55.1618331,31.2864439 55.07733,31.2026836 C54.992827,31.1189232 54.9453148,31.0050373 54.9453148,30.88625 L54.9453148,27.4825 C54.9449803,27.3634962 54.992345,27.2492881 55.0768846,27.1652568 C55.1614242,27.0812255 55.2761348,27.0343328 55.3955235,27.034993 L60.8506778,27.034993 C60.9696325,27.034993 61.0836969,27.0821866 61.1676929,27.1661452 C61.2516888,27.2501039 61.2987098,27.3639307 61.2983784,27.4825 L61.2983784,30.88625 Z" id="Shape"></path>
                        </g>
                    </g>
                </g>
            </g>
        </g>
    </g>
</svg>