<?xml version="1.0" encoding="UTF-8" standalone="no"?>
<svg
   xmlns:dc="http://purl.org/dc/elements/1.1/"
   xmlns:cc="http://creativecommons.org/ns#"
   xmlns:rdf="http://www.w3.org/1999/02/22-rdf-syntax-ns#"
   xmlns:svg="http://www.w3.org/2000/svg"
   xmlns="http://www.w3.org/2000/svg"
   xmlns:sodipodi="http://sodipodi.sourceforge.net/DTD/sodipodi-0.dtd"
   xmlns:inkscape="http://www.inkscape.org/namespaces/inkscape"
   viewBox="0 0 575.60909 391.9015"
   version="1.1"
   id="svg28"
   sodipodi:docname="Reflow_logo-svg-color-white-font.svg"
   inkscape:version="1.0.1 (3bc2e813f5, 2020-09-07)"
   width="152.29657mm"
   height="103.69061mm">
  <metadata
     id="metadata32">
    <rdf:RDF>
      <cc:Work
         rdf:about="">
        <dc:format>image/svg+xml</dc:format>
        <dc:type
           rdf:resource="http://purl.org/dc/dcmitype/StillImage" />
        <dc:title>Reflow_lofo-svg</dc:title>
      </cc:Work>
    </rdf:RDF>
  </metadata>
  <sodipodi:namedview
     pagecolor="#ffffff"
     bordercolor="#666666"
     borderopacity="1"
     objecttolerance="10"
     gridtolerance="10"
     guidetolerance="10"
     inkscape:pageopacity="0"
     inkscape:pageshadow="2"
     inkscape:window-width="1680"
     inkscape:window-height="987"
     id="namedview30"
     showgrid="false"
     inkscape:zoom="0.708379"
     inkscape:cx="57.462628"
     inkscape:cy="251.82562"
     inkscape:window-x="2552"
     inkscape:window-y="-8"
     inkscape:window-maximized="1"
     inkscape:current-layer="svg28"
     inkscape:document-rotation="0"
     units="mm"
     fit-margin-top="0"
     fit-margin-left="0"
     fit-margin-right="0"
     fit-margin-bottom="0" />
  <defs
     id="defs4">
    <style
       id="style2">.cls-1{fill:#0d2451;}.cls-2{fill:#fff;}.cls-3{fill:#4ae472;}</style>
    <clipPath
       clipPathUnits="userSpaceOnUse"
       id="clipPath859">
      <rect
         style="fill:#000000"
         id="rect861"
         width="575.60907"
         height="391.90149"
         x="78.828735"
         y="172.73947"
         ry="0" />
    </clipPath>
  </defs>
  <title
     id="title6">Reflow_lofo-svg</title>
  <g
     id="Layer_2"
     data-name="Layer 2"
     transform="translate(-78.828735,-172.73947)">
    <circle
       class="cls-1"
       cx="366.84"
       cy="366.84"
       r="366.84"
       id="circle8"
       clip-path="url(#clipPath859)" />
    <g
       id="Layer_2-2"
       data-name="Layer 2">
      <path
         class="cls-2"
         d="m 376.32,294.53 a 2.24,2.24 0 0 0 -2.24,2.24 v 126.71 a 2.24,2.24 0 0 0 2.24,2.25 h 21.94 a 2.25,2.25 0 0 0 2.25,-2.25 V 296.77 a 2.24,2.24 0 0 0 -2.25,-2.24 z"
         id="path10" />
      <path
         class="cls-2"
         d="m 216,418.42 q 11.15,7.31 27.27,7.31 a 53.34,53.34 0 0 0 21.37,-4.22 40.93,40.93 0 0 0 15.92,-11.9 3.88,3.88 0 0 0 0.76,-1.5 2.64,2.64 0 0 0 -0.9,-1.69 l -13.54,-13.3 a 1.68,1.68 0 0 0 -2.34,-0.47 1.65,1.65 0 0 0 -0.65,0.84 22.56,22.56 0 0 1 -19,9.74 q -15,0 -19.86,-10.49 a 33.1,33.1 0 0 1 -2.06,-7.5 c -0.26,-0.62 0,-0.9 0.75,-0.9 h 57.91 a 2.19,2.19 0 0 0 2.43,-1.92 c 0,-0.11 0,-0.23 0,-0.34 a 80.09,80.09 0 0 0 -0.75,-15.93 Q 281,348 269.62,337.1 q -11.38,-10.9 -30.08,-10.83 -14.81,0 -25.58,7.87 a 41.19,41.19 0 0 0 -15.09,21.18 54.05,54.05 0 0 0 -2.81,18.19 q 0,15.18 3.93,24.55 A 40.57,40.57 0 0 0 216,418.42 Z m 8.12,-58.3 q 3.73,-11.06 15.56,-11.05 a 17.14,17.14 0 0 1 10.39,3.09 c 2.82,2.06 6.94,8.25 6.84,14 0.25,0.62 0,0.9 -0.75,0.9 h -32.35 a 0.84,0.84 0 0 1 -0.91,-0.75 v -0.15 a 45.56,45.56 0 0 1 1.28,-6 z"
         id="path12" />
      <path
         class="cls-2"
         d="m 311.57,425.07 a 2.15,2.15 0 0 0 1.59,0.66 h 21.93 a 2.24,2.24 0 0 0 2.25,-2.23 v -71.06 a 0.83,0.83 0 0 1 0.75,-0.9 h 18.33 a 2.24,2.24 0 0 0 2.25,-2.24 v -17.85 a 2.24,2.24 0 0 0 -2.24,-2.25 h -18.15 a 0.85,0.85 0 0 1 -0.91,-0.75 v -2.23 q 0,-6.77 2.54,-9.28 c 1.69,-1.67 4.72,-2.58 9.09,-2.7 h 6.12 a 2.24,2.24 0 0 0 2.25,-2.24 v 0 -15.23 a 2.24,2.24 0 0 0 -2.25,-2.24 H 348 q -14.06,-0.37 -22,2.34 -7.94,2.71 -11.47,9.18 -3.53,6.48 -3.53,18.05 v 4.12 a 0.84,0.84 0 0 1 -0.75,0.91 h -11.33 a 2.23,2.23 0 0 0 -2.25,2.23 v 17.83 a 2.24,2.24 0 0 0 2.24,2.24 H 310 a 0.84,0.84 0 0 1 0.91,0.76 v 71.18 a 2.13,2.13 0 0 0 0.66,1.7 z"
         id="path14" />
      <path
         class="cls-2"
         d="m 488.78,334.17 q -10.83,-7.77 -26.23,-7.78 -15.76,0 -27,7.87 A 40.29,40.29 0 0 0 420,356 69.74,69.74 0 0 0 417.37,375.85 66.81,66.81 0 0 0 420,395 a 41.12,41.12 0 0 0 15.34,22.49 q 11.25,8.25 27,8.25 15.75,0 26.89,-8.35 11.16,-8.31 15.28,-22.95 a 66.05,66.05 0 0 0 2.63,-19 64.07,64.07 0 0 0 -3,-19.68 Q 499.67,342 488.78,334.17 Z M 479,389 a 20.87,20.87 0 0 1 -6.19,10.31 15.45,15.45 0 0 1 -10.49,3.75 16.06,16.06 0 0 1 -10.78,-3.73 A 20.51,20.51 0 0 1 445.27,389 51.19,51.19 0 0 1 444,375.89 q 0,-8.81 1.5,-13.31 a 20,20 0 0 1 6.1,-9.93 17.4,17.4 0 0 1 21.08,0 20.9,20.9 0 0 1 6.37,9.93 50.76,50.76 0 0 1 1.55,13.27 A 53.81,53.81 0 0 1 479,389 Z"
         id="path16" />
      <path
         class="cls-2"
         d="m 651.38,330.24 a 1.77,1.77 0 0 0 -1.59,-0.66 l -22.5,-0.38 a 2.48,2.48 0 0 0 -2.62,1.88 l -14.62,56.78 c -0.13,0.38 -0.31,0.57 -0.56,0.57 -0.25,0 -0.44,-0.19 -0.56,-0.57 l -14.81,-56.78 a 2.48,2.48 0 0 0 -2.63,-1.88 h -19.68 a 2.47,2.47 0 0 0 -2.62,1.88 l -14.05,56.6 c -0.13,0.37 -0.32,0.56 -0.57,0.56 -0.25,0 -0.44,-0.19 -0.56,-0.56 l -13.54,-56.6 a 2.48,2.48 0 0 0 -2.62,-1.88 h -22.68 c -1.38,0 -2.07,0.63 -2.07,1.88 l 0.19,0.74 27,92.05 a 2.48,2.48 0 0 0 2.63,1.88 h 22.68 a 2.47,2.47 0 0 0 2.62,-1.88 L 581,373.64 c 0.13,-0.38 0.31,-0.57 0.56,-0.57 0.25,0 0.45,0.19 0.57,0.57 l 14.44,50.23 a 2.48,2.48 0 0 0 2.63,1.88 h 22.67 a 2.36,2.36 0 0 0 2.44,-1.88 L 651.62,332 a 2.3,2.3 0 0 0 -0.24,-1.76 z"
         id="path18" />
      <path
         class="cls-2"
         d="M 162.4,371.34 A 37.17,37.17 0 0 0 179,358.2 c 4.7,-6.71 7.11,-14.83 7.11,-24.13 a 46.67,46.67 0 0 0 -5.47,-22.77 38.44,38.44 0 0 0 -15.7,-15.48 48.25,48.25 0 0 0 -23,-5.35 H 88.29 A 6.32,6.32 0 0 0 82,296.78 v 126.7 a 6.32,6.32 0 0 0 6.32,6.32 h 21.93 a 6.17,6.17 0 0 0 4.51,-1.8 6.27,6.27 0 0 0 1.8,-4.46 V 375.43 H 129 l 22.66,50.26 a 6.71,6.71 0 0 0 6.32,4.1 h 23 c 4.21,0 6.13,-2.89 6.13,-5.56 a 6.5,6.5 0 0 0 -0.78,-2.89 z m -10.7,-37.11 a 12,12 0 0 1 -3.69,9.23 c -2.55,2.41 -5.84,3.61 -10,3.61 h -21.48 v -25.8 H 138 c 4.19,0 7.47,1.19 10,3.61 a 12.23,12.23 0 0 1 3.72,9.38 z"
         id="path20" />
      <path
         class="cls-3"
         d="m 522.78,458.11 -11.65,-6.72 a 6.48,6.48 0 0 0 -8.78,2.3 160.05,160.05 0 0 1 -136.72,77.66 c -42.89,0 -87.1,-20 -117.38,-51 l 21.8,4.07 a 6.48,6.48 0 0 0 7.58,-4.75 l 3.82,-15.12 a 6.45,6.45 0 0 0 -4.66,-7.84 v 0 l -60.88,-12.84 a 7.09,7.09 0 0 0 -8.38,5.42 l -13.46,59.85 a 6.47,6.47 0 0 0 1,5.42 6.78,6.78 0 0 0 3.88,2.52 l 14.88,3.76 a 6.47,6.47 0 0 0 7.84,-4.66 L 227.12,496 c 68.36,76.5 185.8,83.09 262.29,14.72 a 185.62,185.62 0 0 0 35.9,-43.6 6.37,6.37 0 0 0 0.52,-5.48 6.81,6.81 0 0 0 -3.05,-3.53 z"
         id="path22" />
      <path
         class="cls-3"
         d="m 547.12,232.76 a 6.7,6.7 0 0 0 -4.07,-2.49 l -15,-3.14 a 6.48,6.48 0 0 0 -7.64,5 l -5.22,21.14 C 484.34,206.58 425.42,175.75 365.67,175.75 A 186,186 0 0 0 196,285.84 a 6.47,6.47 0 0 0 3.29,8.54 h 0.07 l 12.57,5.42 a 6.5,6.5 0 0 0 8.46,-3.32 159.36,159.36 0 0 1 145.29,-94.19 c 50.61,0 99.89,25.47 129.83,65.77 L 472,261.93 a 6.43,6.43 0 0 0 -5.19,1.16 6.7,6.7 0 0 0 -2.49,4.07 l -3.14,15 a 6.47,6.47 0 0 0 5,7.65 L 528.16,304 a 7.08,7.08 0 0 0 8.49,-5.33 c 0,-0.08 0,-0.16 0.05,-0.24 L 548.29,238 a 6.44,6.44 0 0 0 -1.17,-5.24 z"
         id="path24" />
    </g>
  </g>
</svg>
