<svg xmlns="http://www.w3.org/2000/svg" viewBox="0 0 1093.43 733.68"><defs><style>.cls-1{fill:#fff;}</style></defs><title>Reflow_lofo-svg</title><g id="Layer_2" data-name="Layer 2"><g id="Layer_2-2" data-name="Layer 2"><path class="cls-1" d="M564.92,228.06a4.31,4.31,0,0,0-4.31,4.31V475.55a4.31,4.31,0,0,0,4.31,4.31H607a4.31,4.31,0,0,0,4.31-4.31V232.37a4.31,4.31,0,0,0-4.31-4.31Z"/><path class="cls-1" d="M257.28,465.84q21.41,14,52.34,14a102.07,102.07,0,0,0,41-8.1,78.52,78.52,0,0,0,30.57-22.83,7.44,7.44,0,0,0,1.45-2.89,5.05,5.05,0,0,0-1.73-3.24l-26-25.53a3.24,3.24,0,0,0-5.75.71,43.31,43.31,0,0,1-36.37,18.71q-28.79,0-38.1-20.14a63.18,63.18,0,0,1-4-14.4c-.48-1.19,0-1.73,1.44-1.73H383.34a4.2,4.2,0,0,0,4.66-3.67,4.85,4.85,0,0,0,0-.66,154.78,154.78,0,0,0-1.44-30.57q-4.66-34.89-26.44-55.75T302.41,289q-28.43,0-49.1,15.1a79.07,79.07,0,0,0-29,40.65,103.71,103.71,0,0,0-5.4,34.9q0,29.14,7.55,47.12A78,78,0,0,0,257.28,465.84ZM272.86,354q7.2-21.22,29.86-21.21a32.86,32.86,0,0,1,19.95,5.92c5.41,4,13.32,15.85,13.13,26.81.49,1.2,0,1.73-1.43,1.73H272.21a1.6,1.6,0,0,1-1.74-1.44v-.29A87.12,87.12,0,0,1,272.93,354Z"/><path class="cls-1" d="M440.64,478.6a4.14,4.14,0,0,0,3.06,1.26h42.09a4.29,4.29,0,0,0,4.31-4.27V339.21a1.6,1.6,0,0,1,1.44-1.73h35.19a4.31,4.31,0,0,0,4.31-4.31V298.93a4.31,4.31,0,0,0-4.29-4.33H491.9a1.59,1.59,0,0,1-1.73-1.44,1.4,1.4,0,0,1,0-.29v-4q0-13,4.87-17.8t17.44-5.19h11.74a4.33,4.33,0,0,0,4.33-4.3V232.37a4.31,4.31,0,0,0-4.31-4.31H510.55q-27-.74-42.25,4.49t-22,17.63q-6.82,12.42-6.82,34.63v7.92a1.59,1.59,0,0,1-1.44,1.73,1.4,1.4,0,0,1-.29,0H416.37a4.32,4.32,0,0,0-4.33,4.3V333a4.31,4.31,0,0,0,4.31,4.31h21.27a1.59,1.59,0,0,1,1.73,1.45,1.4,1.4,0,0,1,0,.29V475.34A4.15,4.15,0,0,0,440.64,478.6Z"/><path class="cls-1" d="M780.75,304.14Q760,289.22,730.4,289.21q-30.24,0-51.8,15.11A77.34,77.34,0,0,0,648.74,346a133.67,133.67,0,0,0-5,38.1,127.78,127.78,0,0,0,5,36.68A79,79,0,0,0,678.19,464q21.57,15.83,51.8,15.83t51.61-16q21.4-16,29.32-44.06a126.47,126.47,0,0,0,5-36.37,122.78,122.78,0,0,0-5.77-37.76Q801.63,319.06,780.75,304.14Zm-18.7,105.22a40,40,0,0,1-11.87,19.78,29.64,29.64,0,0,1-20.14,7.2,30.81,30.81,0,0,1-20.68-7.17,39.19,39.19,0,0,1-12.12-19.78q-2.52-9-2.53-25.18,0-16.9,2.87-25.55a38.64,38.64,0,0,1,11.71-19.05,33.39,33.39,0,0,1,40.46,0A40,40,0,0,1,762,358.66a97.7,97.7,0,0,1,3,25.48A104,104,0,0,1,762.05,409.36Z"/><path class="cls-1" d="M1092.81,296.59a3.46,3.46,0,0,0-3-1.26l-43.18-.73a4.78,4.78,0,0,0-5,3.6l-28,109c-.24.73-.59,1.09-1.08,1.09s-.84-.36-1.07-1.09l-28.42-109a4.76,4.76,0,0,0-5-3.6H940.11a4.76,4.76,0,0,0-5,3.6l-27,108.63c-.24.73-.61,1.09-1.09,1.09s-.83-.36-1.08-1.09L880,298.2a4.78,4.78,0,0,0-5-3.6H831.39c-2.65,0-4,1.21-4,3.6l.36,1.44,51.8,176.66a4.74,4.74,0,0,0,5,3.6h43.53a4.75,4.75,0,0,0,5-3.6l24.45-96.4c.24-.73.59-1.09,1.07-1.09s.85.36,1.1,1.09l27.71,96.4a4.73,4.73,0,0,0,5,3.6h43.52a4.54,4.54,0,0,0,4.68-3.6L1093.28,300A4.52,4.52,0,0,0,1092.81,296.59Z"/><path class="cls-1" d="M154.37,375.48a71.6,71.6,0,0,0,31.78-25.22c9-12.88,13.63-28.47,13.63-46.31a89.5,89.5,0,0,0-10.5-43.69,73.69,73.69,0,0,0-30.12-29.72A92.59,92.59,0,0,0,115,220.27H12.12A12.12,12.12,0,0,0,0,232.39V475.55a12.13,12.13,0,0,0,12.12,12.13H54.21a11.84,11.84,0,0,0,8.66-3.47,12,12,0,0,0,3.46-8.55V383.33H90.27l43.5,96.45a12.87,12.87,0,0,0,12.13,7.88h44.23c8.09,0,11.76-5.54,11.76-10.67a12.2,12.2,0,0,0-1.49-5.54Zm-20.54-71.23A23,23,0,0,1,126.74,322c-4.9,4.63-11.2,6.93-19.29,6.93H66.33V279.38h41.12c8,0,14.34,2.28,19.24,6.92a23.61,23.61,0,0,1,7.14,18Z"/><path class="cls-1" d="M846,542,823.65,529.1a12.48,12.48,0,0,0-16.87,4.42A307.12,307.12,0,0,1,544.4,682.57c-82.32,0-167.17-38.43-225.28-97.89L361,592.47a12.43,12.43,0,0,0,14.55-9.11l7.32-29a12.38,12.38,0,0,0-8.94-15.05h0L257,514.64A13.61,13.61,0,0,0,240.93,525L215.11,639.91a12.33,12.33,0,0,0,2,10.39,13,13,0,0,0,7.45,4.85l28.56,7.21a12.42,12.42,0,0,0,15.05-8.94l10.39-38.69C409.77,761.54,635.15,774.19,782,643a356.55,356.55,0,0,0,68.9-83.67,12.31,12.31,0,0,0,1-10.53A13,13,0,0,0,846,542Z"/><path class="cls-1" d="M892.72,109.51a12.94,12.94,0,0,0-7.81-4.78L856,98.7a12.45,12.45,0,0,0-14.67,9.51l-10,40.56C772.14,59.18,659.07,0,544.4,0A356.94,356.94,0,0,0,218.79,211.38a12.42,12.42,0,0,0,6.31,16.39l.14.06,24.12,10.4a12.46,12.46,0,0,0,16.23-6.36A305.87,305.87,0,0,1,544.43,51.09c97.14,0,191.71,48.88,249.17,126.22l-45-11.81a12.3,12.3,0,0,0-10,2.22,13,13,0,0,0-4.78,7.81l-6,28.89a12.44,12.44,0,0,0,9.66,14.69l118.88,27a13.61,13.61,0,0,0,16.29-10.22c0-.16.07-.31.1-.47L895,119.52A12.36,12.36,0,0,0,892.72,109.51Z"/></g></g></svg>