<svg id="Layer_1" data-name="Layer 1" xmlns="http://www.w3.org/2000/svg" viewBox="0 0 1157 294"><defs><style>.cls-1{fill:none;stroke:#0d2451;stroke-miterlimit:10;stroke-width:2px;}.cls-2,.cls-3{fill:#0d2451;}.cls-3{font-size:27.8px;font-family:Barlow-Regular, Barlow;}.cls-4{letter-spacing:0em;}.cls-5{letter-spacing:0em;}.cls-6{letter-spacing:-0.02em;}.cls-7{letter-spacing:-0.01em;}.cls-8{letter-spacing:-0.01em;}.cls-9{letter-spacing:-0.05em;}.cls-10{letter-spacing:-0.01em;}.cls-11{letter-spacing:-0.01em;}.cls-12{letter-spacing:-0.02em;}.cls-13{letter-spacing:-0.01em;}.cls-14{letter-spacing:0em;}.cls-15{letter-spacing:0em;}.cls-16{letter-spacing:0em;}.cls-17{letter-spacing:-0.04em;}</style></defs><title>Reflow_EU logo</title><line class="cls-1" x1="311.43" y1="90.05" x2="311.43" y2="223"/><path class="cls-2" d="M158.78,133.15a.73.73,0,0,0-.54.22.74.74,0,0,0-.23.54v43.22a.79.79,0,0,0,.77.77h7.48a.79.79,0,0,0,.77-.77V133.91a.74.74,0,0,0-.23-.54.73.73,0,0,0-.54-.22Z"/><path class="cls-2" d="M104.11,175.4a16.51,16.51,0,0,0,9.3,2.5,18.17,18.17,0,0,0,7.29-1.44,14,14,0,0,0,5.43-4.06,1.43,1.43,0,0,0,.26-.51.92.92,0,0,0-.32-.58l-4.61-4.54a.69.69,0,0,0-.44-.25.72.72,0,0,0-.58.38,7.75,7.75,0,0,1-6.46,3.33c-3.41,0-5.67-1.2-6.77-3.58a11.27,11.27,0,0,1-.71-2.56c-.08-.21,0-.32.26-.32h19.75a.75.75,0,0,0,.83-.77,27.58,27.58,0,0,0-.25-5.43,16.23,16.23,0,0,0-4.7-9.91Q118.52,144,112.13,144a14.4,14.4,0,0,0-8.73,2.69,14,14,0,0,0-5.14,7.22,18.39,18.39,0,0,0-1,6.2,22,22,0,0,0,1.34,8.37A13.81,13.81,0,0,0,104.11,175.4Zm2.78-19.88a5.12,5.12,0,0,1,5.3-3.77,5.86,5.86,0,0,1,3.55,1.05,6.73,6.73,0,0,1,2.33,4.77c.09.21,0,.32-.25.32H106.76a.29.29,0,0,1-.32-.32A15.75,15.75,0,0,1,106.89,155.52Z"/><path class="cls-2" d="M136.69,177.67a.75.75,0,0,0,.55.23h7.48a.74.74,0,0,0,.54-.23.73.73,0,0,0,.22-.54V152.9a.29.29,0,0,1,.32-.32H152a.75.75,0,0,0,.77-.77v-6.07a.73.73,0,0,0-.22-.54A.75.75,0,0,0,152,145h-6.2a.28.28,0,0,1-.32-.32V144a4.42,4.42,0,0,1,.87-3.16,4.48,4.48,0,0,1,3.1-.93h2.11a.77.77,0,0,0,.76-.77v-5.18a.75.75,0,0,0-.76-.76h-2.43a22.07,22.07,0,0,0-7.51.8,6.72,6.72,0,0,0-3.94,3.13,12.93,12.93,0,0,0-1.21,6.17v1.4a.28.28,0,0,1-.32.32h-3.77a.75.75,0,0,0-.55.23.73.73,0,0,0-.22.54v6.07a.75.75,0,0,0,.77.77h3.77a.29.29,0,0,1,.32.32v24.23A.73.73,0,0,0,136.69,177.67Z"/><path class="cls-2" d="M197.14,146.67a15,15,0,0,0-8.95-2.66A15.67,15.67,0,0,0,179,146.7a13.7,13.7,0,0,0-5.3,7.42,23.56,23.56,0,0,0-.9,6.77,22.58,22.58,0,0,0,.9,6.52,14,14,0,0,0,5.24,7.67,15.1,15.1,0,0,0,9.2,2.82,14.89,14.89,0,0,0,9.18-2.85,14.32,14.32,0,0,0,5.21-7.83,22.77,22.77,0,0,0,.89-6.46,21.94,21.94,0,0,0-1-6.71A14.15,14.15,0,0,0,197.14,146.67Zm-3.33,18.7a7,7,0,0,1-2.11,3.51,5.22,5.22,0,0,1-3.58,1.28,5.42,5.42,0,0,1-3.67-1.28,6.94,6.94,0,0,1-2.14-3.51,17.37,17.37,0,0,1-.45-4.48,15.32,15.32,0,0,1,.51-4.54,6.84,6.84,0,0,1,2.08-3.39,5.95,5.95,0,0,1,7.19,0,7.1,7.1,0,0,1,2.17,3.39,17.38,17.38,0,0,1,.51,4.54A18.56,18.56,0,0,1,193.81,165.37Z"/><path class="cls-2" d="M252.6,145.32a.66.66,0,0,0-.55-.22l-7.67-.13a.84.84,0,0,0-.89.64l-5,19.37c0,.13-.11.19-.19.19s-.15-.06-.19-.19l-5.05-19.37a.85.85,0,0,0-.9-.64h-6.71a.85.85,0,0,0-.9.64l-4.79,19.31c-.05.13-.11.19-.19.19s-.15-.06-.2-.19l-4.6-19.31a.84.84,0,0,0-.89-.64h-7.74c-.47,0-.7.22-.7.64l.06.26,9.21,31.39a.84.84,0,0,0,.89.64h7.74a.84.84,0,0,0,.89-.64l4.35-17.14c0-.12.11-.19.19-.19s.15.07.19.19l4.93,17.14a.84.84,0,0,0,.89.64h7.74a.81.81,0,0,0,.83-.64l9.33-31.33A.85.85,0,0,0,252.6,145.32Z"/><path class="cls-2" d="M85.82,159.36a12.7,12.7,0,0,0,5.64-4.48,14.06,14.06,0,0,0,2.43-8.24A15.87,15.87,0,0,0,92,138.87a13.08,13.08,0,0,0-5.35-5.28,16.45,16.45,0,0,0-7.85-1.83H60.54a2.1,2.1,0,0,0-1.52.63,2.08,2.08,0,0,0-.63,1.52v43.22a2.09,2.09,0,0,0,.62,1.52,2.12,2.12,0,0,0,1.53.63H68a2.15,2.15,0,0,0,2.15-2.15V160.74h4.25l7.74,17.14a2.27,2.27,0,0,0,2.16,1.4h7.86a1.9,1.9,0,0,0,2.09-1.89,2.32,2.32,0,0,0-.26-1ZM82.17,146.7a4.09,4.09,0,0,1-1.26,3.15,4.75,4.75,0,0,1-3.43,1.22H70.17v-8.8h7.31a4.67,4.67,0,0,1,3.42,1.24A4.21,4.21,0,0,1,82.17,146.7Z"/><path class="cls-2" d="M208.8,189l-4-2.33a2.22,2.22,0,0,0-3,.78,54.57,54.57,0,0,1-46.63,26.49c-14.63,0-29.71-6.83-40-17.39l4.55.85a2.2,2.2,0,0,0,2.58-1.62l1.3-5.16a2.18,2.18,0,0,0-.24-1.67,2.23,2.23,0,0,0-1.35-1l-20.22-4.33-4.28,19.82a2.18,2.18,0,0,0,.24,1.67,2.23,2.23,0,0,0,1.35,1l5.16,1.3a2.21,2.21,0,0,0,2.68-1.59l1-3.94A63.37,63.37,0,0,0,209.6,192a2.23,2.23,0,0,0-.8-3Z"/><path class="cls-2" d="M216.6,114a2.16,2.16,0,0,0-1.39-1L210,112a2.21,2.21,0,0,0-2.61,1.69l-1.26,5.41c-10.52-15.93-30.62-26.45-51-26.45a63.43,63.43,0,0,0-57.88,37.57,2.21,2.21,0,0,0,1.15,2.93l4.29,1.84a2.21,2.21,0,0,0,2.88-1.13,54.35,54.35,0,0,1,49.56-32.13,56.06,56.06,0,0,1,44.28,22.43l-5.8-1.54a2.2,2.2,0,0,0-2.61,1.71l-1.08,5.2a2.2,2.2,0,0,0,1.71,2.61L213,136.92l3.9-21.26A2.2,2.2,0,0,0,216.6,114Z"/><text class="cls-3" transform="translate(593.51 117.69)">This p<tspan class="cls-4" x="72.17" y="0">r</tspan><tspan x="82.15" y="0">oject has </tspan><tspan class="cls-4" x="197.19" y="0">r</tspan><tspan x="207.17" y="0">e</tspan><tspan class="cls-5" x="221.99" y="0">c</tspan><tspan x="236.36" y="0">ei</tspan><tspan class="cls-6" x="258.27" y="0">v</tspan><tspan x="271" y="0">ed fu</tspan><tspan class="cls-7" x="331.36" y="0">n</tspan><tspan x="346.15" y="0">ding f</tspan><tspan class="cls-4" x="413.73" y="0">r</tspan><tspan x="423.72" y="0">om t</tspan><tspan class="cls-7" x="477.54" y="0">h</tspan><tspan x="492.33" y="0">e </tspan><tspan x="0" y="33.36">Eu</tspan><tspan class="cls-4" x="31.72" y="33.36">r</tspan><tspan x="41.7" y="33.36">o</tspan><tspan class="cls-7" x="56.86" y="33.36">p</tspan><tspan class="cls-4" x="72.01" y="33.36">e</tspan><tspan x="86.69" y="33.36">an Unio</tspan><tspan class="cls-8" x="176.68" y="33.36">n</tspan><tspan class="cls-9" x="191.5" y="33.36">’</tspan><tspan x="193.86" y="33.36">s Horizon 2020 </tspan><tspan class="cls-4" x="378.18" y="33.36">r</tspan><tspan class="cls-10" x="388.16" y="33.36">e</tspan><tspan x="402.73" y="33.36">s</tspan><tspan class="cls-11" x="416.1" y="33.36">e</tspan><tspan x="430.78" y="33.36">a</tspan><tspan class="cls-4" x="444.99" y="33.36">r</tspan><tspan x="454.97" y="33.36">ch </tspan><tspan x="0" y="66.72">a</tspan><tspan class="cls-7" x="14.21" y="66.72">n</tspan><tspan x="29" y="66.72">d in</tspan><tspan class="cls-7" x="71.81" y="66.72">n</tspan><tspan class="cls-12" x="86.6" y="66.72">o</tspan><tspan class="cls-13" x="101.2" y="66.72">v</tspan><tspan class="cls-14" x="114.1" y="66.72">a</tspan><tspan x="128.2" y="66.72">tion p</tspan><tspan class="cls-4" x="196.45" y="66.72">r</tspan><tspan x="206.43" y="66.72">og</tspan><tspan class="cls-15" x="236.45" y="66.72">r</tspan><tspan x="246.52" y="66.72">am</tspan><tspan class="cls-7" x="283.72" y="66.72">m</tspan><tspan x="306.51" y="66.72">e u</tspan><tspan class="cls-7" x="341.79" y="66.72">n</tspan><tspan x="356.58" y="66.72">der g</tspan><tspan class="cls-15" x="417.13" y="66.72">r</tspan><tspan x="427.2" y="66.72">ant </tspan><tspan x="0.01" y="100.09">ag</tspan><tspan class="cls-4" x="29.08" y="100.09">r</tspan><tspan x="39.07" y="100.09">ee</tspan><tspan class="cls-7" x="68.7" y="100.09">m</tspan><tspan x="91.5" y="100.09">ent nu</tspan><tspan class="cls-16" x="166.87" y="100.09">m</tspan><tspan class="cls-7" x="189.83" y="100.09">b</tspan><tspan x="204.82" y="100.09">er 82093</tspan><tspan class="cls-17" x="309.21" y="100.09">7</tspan><tspan x="321.11" y="100.09">.</tspan></text><path class="cls-2" d="M571.67,93.15H377.86c-.57,0-.71.09-.71.7q0,64.36,0,128.75c0,.65.2.72.77.72H571.73c.54,0,.67-.08.67-.65q0-64.42,0-128.83C572.4,93.2,572.21,93.15,571.67,93.15Zm-99.32,19.5a.91.91,0,0,0,1.06-.8c.39-1.34.85-2.67,1.35-4.21.37,1.1.68,2,1,2.94.66,2,.66,2,2.8,2h3.1c-1.33,1-2.46,1.83-3.64,2.63a.85.85,0,0,0-.37,1.19c.42,1.14.77,2.31,1.14,3.47.05.18.21.36.07.57h0v0l.08,0v.1l-.07-.07h0s0,0,0,0a28.94,28.94,0,0,1-2.67-1.86l-.87-.65a.74.74,0,0,0-1.05,0c-1.17.83-2.27,1.77-3.53,2.49v0h0l-.06.07,0-.1.08,0v0h0a3.35,3.35,0,0,1,.08-.54l.06-.3c.11-.4.26-.8.41-1.2.08-.22.15-.45.22-.68.18-.67.66-1.4.52-2s-1-.88-1.58-1.3c-.77-.57-1.55-1.13-2.52-1.83C469.55,112.63,471,112.59,472.35,112.65ZM428,158.5c-1.12-.74-2.18-1.57-3.48-2.51,1.59,0,3-.06,4.31,0a1.05,1.05,0,0,0,1.27-.95c.36-1.32.84-2.61,1.31-4,.5,1.5,1,2.85,1.37,4.22.17.56.39.77,1,.75,1.42-.05,2.85,0,4.52,0-1.3.95-2.4,1.8-3.55,2.57a1,1,0,0,0-.46,1.39c.49,1.28.87,2.6,1.37,4.13-1.34-1-2.52-1.79-3.65-2.67a.8.8,0,0,0-1.17,0c-1.13.88-2.31,1.69-3.67,2.68.49-1.51.84-2.83,1.34-4.09C428.78,159.25,428.59,158.91,428,158.5ZM440.24,182c.39,1.2.77,2.41,1.2,3.75-1.31-.95-2.52-1.8-3.7-2.69a.73.73,0,0,0-1.05,0,39.78,39.78,0,0,1-3.55,2.5v0h0s0,0,0,0l-.09.09a.12.12,0,0,1,0-.08s0-.05.06-.05l0,0h0a12.27,12.27,0,0,1,.79-2.8c.11-.31.23-.62.33-.93a1.18,1.18,0,0,0-.54-1.69c-1.1-.67-2.11-1.51-3.37-2.43,1.08,0,1.94,0,2.8,0s1.8.34,2.35-.16.58-1.41.83-2.15.53-1.63.87-2.68c.48,1.49,1,2.76,1.3,4.06a1.11,1.11,0,0,0,1.36,1c1.31-.06,2.64,0,4.21,0L440.88,180C439.84,180.78,439.84,180.78,440.24,182Zm.07-45a.68.68,0,0,0-.3.94c.48,1.4.92,2.81,1.44,4.41-1.24-.91-2.38-1.66-3.43-2.52a1.1,1.1,0,0,0-1.65,0c-1.05.85-2.17,1.61-3.41,2.51.49-1.52.87-2.89,1.38-4.22a.93.93,0,0,0-.45-1.3c-1.15-.77-2.24-1.61-3.55-2.57,1.5,0,2.81-.06,4.11,0a1.21,1.21,0,0,0,1.49-1.09c.32-1.27.8-2.5,1.27-3.93.49,1.53,1,2.85,1.33,4.19.18.61.43.86,1.11.82,1.4-.06,2.8,0,4.42,0C442.7,135.31,441.52,136.2,440.31,137ZM459.42,194c-1.05.77-2.08,1.56-3.16,2.28a.75.75,0,0,0-.36,1.05c.48,1.37.91,2.75,1.42,4.34-1.34-1-2.52-1.77-3.64-2.65a.83.83,0,0,0-1.23,0c-1.13.86-2.3,1.68-3.61,2.63.51-1.6.94-3,1.43-4.41a.68.68,0,0,0-.3-.94c-1.2-.85-2.39-1.73-3.78-2.74,1.66,0,3.08,0,4.5,0a.85.85,0,0,0,1-.72c.4-1.37.88-2.72,1.38-4.26.49,1.49,1,2.82,1.34,4.17a.92.92,0,0,0,1.13.81c1.38,0,2.76,0,4.14,0C459.81,193.84,459.54,193.88,459.42,194Zm-2.19-73.55c-1.52,1.11-1.49,1.1-.94,2.92a11.23,11.23,0,0,1,.85,3.06h.06s0,0,0,0h0l0,0h0c-1.2-.88-2.43-1.75-3.62-2.67-.37-.29-.59-.2-.9,0-1.19.88-2.4,1.75-3.78,2.76.5-1.57.91-3,1.4-4.3a.82.82,0,0,0-.36-1.14c-1.18-.8-2.32-1.67-3.69-2.66h3.39c1.87,0,1.87,0,2.44-1.75.33-1,.67-2,1.06-3.23.5,1.52,1,2.9,1.38,4.29a.82.82,0,0,0,1,.7,34,34,0,0,1,4.37.13Zm20.39,82.77a29.21,29.21,0,0,1,1.18,4.11c-.79-.57-1.58-1.14-2.36-1.72-1.66-1.21-1.66-1.21-3.34,0-.78.58-1.57,1.15-2.36,1.72,0,0-.05,0-.18,0,.47-1.44.9-2.84,1.39-4.22a.79.79,0,0,0-.34-1.07c-1.19-.82-2.35-1.69-3.71-2.67,1.66,0,3.09,0,4.51,0a.79.79,0,0,0,1-.68c.4-1.39.89-2.75,1.4-4.31.52,1.56,1,2.92,1.4,4.31.16.56.42.7,1,.68,1.42,0,2.85,0,4.5,0-1.32,1-2.45,1.82-3.62,2.62A.86.86,0,0,0,477.62,203.19Zm16.54-84.76a.77.77,0,0,0,.91-.66c.42-1.39.89-2.77,1.39-4.33.51,1.54,1,2.9,1.39,4.28.15.51.36.73.94.71,1.43-.05,2.87,0,4.39,0-.2.41-.58.54-.85.75-.87.65-1.73,1.32-2.64,1.9a.85.85,0,0,0-.37,1.2c.48,1.32.88,2.66,1.39,4.22l-2.92-2.1c-1.33-1-1.33-1-2.67,0l-2.72,2h0l0,0v0l0,0h0a3.69,3.69,0,0,1,.25-1.28c.14-.42.32-.82.43-1.25.2-.78.81-1.65.6-2.28s-1.18-1-1.83-1.51-1.38-1-2.28-1.65C491.27,118.42,492.72,118.39,494.16,118.43Zm5.18,79.08c.49,1.29.88,2.61,1.38,4.14-1.34-1-2.52-1.79-3.66-2.67a.8.8,0,0,0-1.17,0c-1.12.88-2.3,1.69-3.67,2.68.45-1.38.82-2.54,1.2-3.7s.42-1.29-.69-2.1l-3.16-2.29c1.54,0,2.85-.07,4.14,0a1.22,1.22,0,0,0,1.5-1.09c.33-1.27.8-2.51,1.25-3.9.5,1.51,1,2.85,1.37,4.23.17.63.47.77,1.07.75,1.4,0,2.8,0,4.46,0-1.31.95-2.41,1.79-3.55,2.56A1,1,0,0,0,499.34,197.51ZM510,134.33a.75.75,0,0,0,.9-.65c.41-1.39.89-2.77,1.41-4.35.42,1.27.79,2.38,1.15,3.5.48,1.48.48,1.48,2.06,1.48h3.66c-1.35,1-2.51,1.87-3.71,2.69a.77.77,0,0,0-.33,1.06c.48,1.38.91,2.76,1.42,4.33-1.34-1-2.55-1.83-3.72-2.72a.73.73,0,0,0-1.05,0c-1.18.9-2.39,1.75-3.73,2.73.51-1.58,1-3,1.44-4.38a.74.74,0,0,0-.32-1c-1.2-.82-2.36-1.7-3.73-2.7C507.14,134.31,508.58,134.29,510,134.33Zm5.12,47.07c.42,1.17.79,2.36,1.16,3.54.07.21.24.41.1.65h0v0h0l.07,0,0,.07-.1,0,0,0a0,0,0,0,1,0,0c-1.17-.83-2.35-1.64-3.5-2.5a.77.77,0,0,0-1.12,0c-1.16.89-2.36,1.73-3.69,2.69.5-1.54.91-2.94,1.41-4.31a.81.81,0,0,0-.38-1.12c-1.18-.81-2.32-1.67-3.64-2.64,1.6,0,3,0,4.4,0,.6,0,.91-.14,1.08-.77.38-1.35.86-2.67,1.29-4,.33,0,.25.3.3.47.4,1.18.81,2.36,1.15,3.55a.87.87,0,0,0,1,.76c1.42-.05,2.84,0,4.48,0-1.37,1-2.54,1.87-3.73,2.7A.73.73,0,0,0,515.15,181.4ZM522.3,158c-1.52,1.11-1.49,1.1-.94,2.93a12.46,12.46,0,0,1,.87,3.06h0l0,0v0h0v0c-1.21-.89-2.43-1.76-3.62-2.67a.62.62,0,0,0-.9,0c-1.19.89-2.4,1.75-3.79,2.76.4-1.25.73-2.31,1.07-3.36.53-1.64.53-1.64-.89-2.67l-2.55-1.86s0-.1-.05-.2c1.47,0,2.92,0,4.37,0a.77.77,0,0,0,.89-.67c.41-1.4.89-2.77,1.39-4.32.5,1.52,1,2.9,1.38,4.29a.82.82,0,0,0,1,.7c1.43-.05,2.86,0,4.55,0Z"/></svg>