<svg xmlns="http://www.w3.org/2000/svg" viewBox="0 0 733.68 733.68"><defs><style>.cls-1{fill:#0d2451;}.cls-2{fill:#fff;}.cls-3{fill:#4ae472;}</style></defs><title>Reflow_lofo-svg</title><g id="Layer_2" data-name="Layer 2"><circle class="cls-1" cx="366.84" cy="366.84" r="366.84"/><g id="Layer_2-2" data-name="Layer 2"><path class="cls-2" d="M376.32,294.53a2.24,2.24,0,0,0-2.24,2.24V423.48a2.24,2.24,0,0,0,2.24,2.25h21.94a2.25,2.25,0,0,0,2.25-2.25V296.77a2.24,2.24,0,0,0-2.25-2.24Z"/><path class="cls-2" d="M216,418.42q11.15,7.31,27.27,7.31a53.34,53.34,0,0,0,21.37-4.22,40.93,40.93,0,0,0,15.92-11.9,3.88,3.88,0,0,0,.76-1.5,2.64,2.64,0,0,0-.9-1.69l-13.54-13.3a1.68,1.68,0,0,0-2.34-.47,1.65,1.65,0,0,0-.65.84,22.56,22.56,0,0,1-19,9.74q-15,0-19.86-10.49a33.1,33.1,0,0,1-2.06-7.5c-.26-.62,0-.9.75-.9h57.91a2.19,2.19,0,0,0,2.43-1.92c0-.11,0-.23,0-.34a80.09,80.09,0,0,0-.75-15.93Q281,348,269.62,337.1t-30.08-10.83q-14.81,0-25.58,7.87a41.19,41.19,0,0,0-15.09,21.18,54.05,54.05,0,0,0-2.81,18.19q0,15.18,3.93,24.55A40.57,40.57,0,0,0,216,418.42Zm8.12-58.3q3.73-11.06,15.56-11.05a17.14,17.14,0,0,1,10.39,3.09c2.82,2.06,6.94,8.25,6.84,14,.25.62,0,.9-.75.9H223.81a.84.84,0,0,1-.91-.75v-.15a45.56,45.56,0,0,1,1.28-6Z"/><path class="cls-2" d="M311.57,425.07a2.15,2.15,0,0,0,1.59.66h21.93a2.24,2.24,0,0,0,2.25-2.23V352.44a.83.83,0,0,1,.75-.9h18.33a2.24,2.24,0,0,0,2.25-2.24V331.45a2.24,2.24,0,0,0-2.24-2.25H338.28a.85.85,0,0,1-.91-.75v-2.23q0-6.77,2.54-9.28c1.69-1.67,4.72-2.58,9.09-2.7h6.12a2.24,2.24,0,0,0,2.25-2.24h0V296.77a2.24,2.24,0,0,0-2.25-2.24H348q-14.06-.37-22,2.34t-11.47,9.18Q311,312.53,311,324.1v4.12a.84.84,0,0,1-.75.91H298.92a2.23,2.23,0,0,0-2.25,2.23v17.83a2.24,2.24,0,0,0,2.24,2.24H310a.84.84,0,0,1,.91.76v71.18A2.13,2.13,0,0,0,311.57,425.07Z"/><path class="cls-2" d="M488.78,334.17q-10.83-7.77-26.23-7.78-15.76,0-27,7.87A40.29,40.29,0,0,0,420,356a69.74,69.74,0,0,0-2.63,19.85A66.81,66.81,0,0,0,420,395a41.12,41.12,0,0,0,15.34,22.49q11.25,8.25,27,8.25t26.89-8.35q11.16-8.31,15.28-22.95a66.05,66.05,0,0,0,2.63-19,64.07,64.07,0,0,0-3-19.68Q499.67,342,488.78,334.17ZM479,389a20.87,20.87,0,0,1-6.19,10.31,15.45,15.45,0,0,1-10.49,3.75,16.06,16.06,0,0,1-10.78-3.73A20.51,20.51,0,0,1,445.27,389,51.19,51.19,0,0,1,444,375.89q0-8.81,1.5-13.31a20,20,0,0,1,6.1-9.93,17.4,17.4,0,0,1,21.08,0,20.9,20.9,0,0,1,6.37,9.93,50.76,50.76,0,0,1,1.55,13.27A53.81,53.81,0,0,1,479,389Z"/><path class="cls-2" d="M651.38,330.24a1.77,1.77,0,0,0-1.59-.66l-22.5-.38a2.48,2.48,0,0,0-2.62,1.88l-14.62,56.78c-.13.38-.31.57-.56.57s-.44-.19-.56-.57l-14.81-56.78a2.48,2.48,0,0,0-2.63-1.88H571.81a2.47,2.47,0,0,0-2.62,1.88l-14.05,56.6c-.13.37-.32.56-.57.56s-.44-.19-.56-.56l-13.54-56.6a2.48,2.48,0,0,0-2.62-1.88H515.17c-1.38,0-2.07.63-2.07,1.88l.19.74,27,92.05a2.48,2.48,0,0,0,2.63,1.88h22.68a2.47,2.47,0,0,0,2.62-1.88L581,373.64c.13-.38.31-.57.56-.57s.45.19.57.57l14.44,50.23a2.48,2.48,0,0,0,2.63,1.88h22.67a2.36,2.36,0,0,0,2.44-1.88L651.62,332A2.3,2.3,0,0,0,651.38,330.24Z"/><path class="cls-2" d="M162.4,371.34A37.17,37.17,0,0,0,179,358.2c4.7-6.71,7.11-14.83,7.11-24.13a46.67,46.67,0,0,0-5.47-22.77,38.44,38.44,0,0,0-15.7-15.48,48.25,48.25,0,0,0-23-5.35H88.29A6.32,6.32,0,0,0,82,296.78v126.7a6.32,6.32,0,0,0,6.32,6.32h21.93a6.17,6.17,0,0,0,4.51-1.8,6.27,6.27,0,0,0,1.8-4.46V375.43H129l22.66,50.26a6.71,6.71,0,0,0,6.32,4.1h23c4.21,0,6.13-2.89,6.13-5.56a6.5,6.5,0,0,0-.78-2.89Zm-10.7-37.11a12,12,0,0,1-3.69,9.23c-2.55,2.41-5.84,3.61-10,3.61H116.53v-25.8H138c4.19,0,7.47,1.19,10,3.61a12.23,12.23,0,0,1,3.72,9.38Z"/><path class="cls-3" d="M522.78,458.11l-11.65-6.72a6.48,6.48,0,0,0-8.78,2.3,160.05,160.05,0,0,1-136.72,77.66c-42.89,0-87.1-20-117.38-51l21.8,4.07a6.48,6.48,0,0,0,7.58-4.75l3.82-15.12a6.45,6.45,0,0,0-4.66-7.84h0l-60.88-12.84a7.09,7.09,0,0,0-8.38,5.42l-13.46,59.85a6.47,6.47,0,0,0,1,5.42,6.78,6.78,0,0,0,3.88,2.52l14.88,3.76a6.47,6.47,0,0,0,7.84-4.66L227.12,496c68.36,76.5,185.8,83.09,262.29,14.72a185.62,185.62,0,0,0,35.9-43.6,6.37,6.37,0,0,0,.52-5.48A6.81,6.81,0,0,0,522.78,458.11Z"/><path class="cls-3" d="M547.12,232.76a6.7,6.7,0,0,0-4.07-2.49l-15-3.14a6.48,6.48,0,0,0-7.64,5l-5.22,21.14c-30.85-46.69-89.77-77.52-149.52-77.52A186,186,0,0,0,196,285.84a6.47,6.47,0,0,0,3.29,8.54l.07,0,12.57,5.42a6.5,6.5,0,0,0,8.46-3.32,159.36,159.36,0,0,1,145.29-94.19c50.61,0,99.89,25.47,129.83,65.77L472,261.93a6.43,6.43,0,0,0-5.19,1.16,6.7,6.7,0,0,0-2.49,4.07l-3.14,15a6.47,6.47,0,0,0,5,7.65L528.16,304a7.08,7.08,0,0,0,8.49-5.33c0-.08,0-.16.05-.24L548.29,238A6.44,6.44,0,0,0,547.12,232.76Z"/></g></g></svg>